  0
SECTION
  2
HEADER
  9
$ACADVER
  1
AC1009
  9
$FILLMODE
 70
0
  9
$EXTMIN
 10
-8.9736
 20
-14.0536
 30
0.0000
  9
$EXTMAX
 10
65.8696
 20
60.7896
 30
0.0000
  0
ENDSEC
  0
SECTION
  2
TABLES
  0
TABLE
  2
LTYPE
 70
1
  0
LTYPE
  2
CONTINUOUS
 70
64
  3
Solid line
 72
65
 73
0
 40
0
  0
ENDTAB
  0
TABLE
  2
LAYER
 70
255
  0
LAYER
  2
17
 70
64
 62
82
  6
CONTINUOUS
  0
LAYER
  2
20
 70
64
 62
7
  6
CONTINUOUS
  0
LAYER
  2
44
 70
64
 62
253
  6
CONTINUOUS
  0
LAYER
  2
45
 70
64
 62
253
  6
CONTINUOUS
  0
LAYER
  2
46
 70
64
 62
140
  6
CONTINUOUS
  0
LAYER
  2
47
 70
64
 62
253
  6
CONTINUOUS
  0
LAYER
  2
48
 70
64
 62
253
  6
CONTINUOUS
  0
LAYER
  2
49
 70
64
 62
253
  6
CONTINUOUS
  0
LAYER
  2
51
 70
64
 62
253
  6
CONTINUOUS
  0
ENDTAB
  0
ENDSEC
  0
SECTION
  2
BLOCKS
  0
BLOCK
  8
0
  2
RECT
 70
64
 10
0.0000
 20
0.0000
 30
0.0000
  3
RECT
  0
SOLID
  8
0
 10
-0.5000
 20
-0.5000
 30
0.0000
 11
0.5000
 21
-0.5000
 31
0.0000
 12
-0.5000
 22
0.5000
 32
0.0000
 13
0.5000
 23
0.5000
 33
0.0000
  0
ENDBLK
  8
0
  0
BLOCK
  8
0
  2
PIE
 70
64
 10
0.0000
 20
0.0000
 30
0.0000
  3
PIE
  0
CIRCLE
  8
0
 10
0.0000
 20
0.0000
 30
0.0000
 40
0.5000
  0
ENDBLK
  8
0
  0
BLOCK
  8
0
  2
OCTAGONP
 70
64
 10
0.0000
 20
0.0000
 30
0.0000
  3
OCTAGONP
  0
POLYLINE
  8
0
 66
1
 10
0.0000
 20
0.0000
 30
0.0000
 40
0.0000
 41
0.0000
 70
1
  0
VERTEX
  8
0
 10
-0.5000
 20
-0.2071
 30
0.0000
  0
VERTEX
  8
0
 10
-0.5000
 20
0.2071
 30
0.0000
  0
VERTEX
  8
0
 10
-0.2071
 20
0.5000
 30
0.0000
  0
VERTEX
  8
0
 10
0.2071
 20
0.5000
 30
0.0000
  0
VERTEX
  8
0
 10
0.5000
 20
0.2071
 30
0.0000
  0
VERTEX
  8
0
 10
0.5000
 20
-0.2071
 30
0.0000
  0
VERTEX
  8
0
 10
0.2071
 20
-0.5000
 30
0.0000
  0
VERTEX
  8
0
 10
-0.2071
 20
-0.5000
 30
0.0000
  0
SEQEND
  8
0
  0
ENDBLK
  8
0
  0
BLOCK
  8
0
  2
SQUAREP
 70
64
 10
0.0000
 20
0.0000
 30
0.0000
  3
SQUAREP
  0
SOLID
  8
0
 10
-0.5000
 20
-0.5000
 30
0.0000
 11
0.5000
 21
-0.5000
 31
0.0000
 12
-0.5000
 22
0.5000
 32
0.0000
 13
0.5000
 23
0.5000
 33
0.0000
  0
ENDBLK
  8
0
  0
BLOCK
  8
0
  2
ROUNDP
 70
64
 10
0.0000
 20
0.0000
 30
0.0000
  3
ROUNDP
  0
CIRCLE
  8
0
 10
0.0000
 20
0.0000
 30
0.0000
 40
0.5000
  0
ENDBLK
  8
0
  0
BLOCK
  8
0
  2
ANNULUSP
 70
64
 10
0.0000
 20
0.0000
 30
0.0000
  3
ANNULUSP
  0
CIRCLE
  8
0
 10
0.0000
 20
0.0000
 30
0.0000
 40
0.5000
  0
ENDBLK
  8
0
  0
BLOCK
  8
0
  2
THERMALP
 70
64
 10
0.0000
 20
0.0000
 30
0.0000
  3
THERMALP
  0
POLYLINE
  8
0
 66
1
 10
0.0000
 20
0.0000
 30
0.0000
 40
0.0000
 41
0.0000
 70
1
  0
VERTEX
  8
0
 10
-0.2379
 20
0.4000
 30
0.0000
  0
VERTEX
  8
0
 10
0.2379
 20
0.4000
 30
0.0000
 42
1.0000
  0
VERTEX
  8
0
 10
0.2379
 20
0.5000
 30
0.0000
  0
VERTEX
  8
0
 10
-0.2379
 20
0.5000
 30
0.0000
 42
1.0000
  0
SEQEND
  8
0
  0
POLYLINE
  8
0
 66
1
 10
0.0000
 20
0.0000
 30
0.0000
 40
0.0000
 41
0.0000
 70
1
  0
VERTEX
  8
0
 10
0.4000
 20
0.2379
 30
0.0000
  0
VERTEX
  8
0
 10
0.4000
 20
-0.2379
 30
0.0000
 42
1.0000
  0
VERTEX
  8
0
 10
0.5000
 20
-0.2379
 30
0.0000
  0
VERTEX
  8
0
 10
0.5000
 20
0.2379
 30
0.0000
 42
1.0000
  0
SEQEND
  8
0
  0
POLYLINE
  8
0
 66
1
 10
0.0000
 20
0.0000
 30
0.0000
 40
0.0000
 41
0.0000
 70
1
  0
VERTEX
  8
0
 10
0.2379
 20
-0.4000
 30
0.0000
  0
VERTEX
  8
0
 10
-0.2379
 20
-0.4000
 30
0.0000
 42
1.0000
  0
VERTEX
  8
0
 10
-0.2379
 20
-0.5000
 30
0.0000
  0
VERTEX
  8
0
 10
0.2379
 20
-0.5000
 30
0.0000
 42
1.0000
  0
SEQEND
  8
0
  0
POLYLINE
  8
0
 66
1
 10
0.0000
 20
0.0000
 30
0.0000
 40
0.0000
 41
0.0000
 70
1
  0
VERTEX
  8
0
 10
-0.4000
 20
-0.2379
 30
0.0000
  0
VERTEX
  8
0
 10
-0.4000
 20
0.2379
 30
0.0000
 42
1.0000
  0
VERTEX
  8
0
 10
-0.5000
 20
0.2379
 30
0.0000
  0
VERTEX
  8
0
 10
-0.5000
 20
-0.2379
 30
0.0000
 42
1.0000
  0
SEQEND
  8
0
  0
ENDBLK
  8
0
  0
BLOCK
  8
0
  2
OCTAGONV
 70
64
 10
0.0000
 20
0.0000
 30
0.0000
  3
OCTAGONV
  0
POLYLINE
  8
0
 66
1
 10
0.0000
 20
0.0000
 30
0.0000
 40
0.0000
 41
0.0000
 70
1
  0
VERTEX
  8
0
 10
-0.5000
 20
-0.2071
 30
0.0000
  0
VERTEX
  8
0
 10
-0.5000
 20
0.2071
 30
0.0000
  0
VERTEX
  8
0
 10
-0.2071
 20
0.5000
 30
0.0000
  0
VERTEX
  8
0
 10
0.2071
 20
0.5000
 30
0.0000
  0
VERTEX
  8
0
 10
0.5000
 20
0.2071
 30
0.0000
  0
VERTEX
  8
0
 10
0.5000
 20
-0.2071
 30
0.0000
  0
VERTEX
  8
0
 10
0.2071
 20
-0.5000
 30
0.0000
  0
VERTEX
  8
0
 10
-0.2071
 20
-0.5000
 30
0.0000
  0
SEQEND
  8
0
  0
ENDBLK
  8
0
  0
BLOCK
  8
0
  2
SQUAREV
 70
64
 10
0.0000
 20
0.0000
 30
0.0000
  3
SQUAREV
  0
SOLID
  8
0
 10
-0.5000
 20
-0.5000
 30
0.0000
 11
0.5000
 21
-0.5000
 31
0.0000
 12
-0.5000
 22
0.5000
 32
0.0000
 13
0.5000
 23
0.5000
 33
0.0000
  0
ENDBLK
  8
0
  0
BLOCK
  8
0
  2
ROUNDV
 70
64
 10
0.0000
 20
0.0000
 30
0.0000
  3
ROUNDV
  0
CIRCLE
  8
0
 10
0.0000
 20
0.0000
 30
0.0000
 40
0.5000
  0
ENDBLK
  8
0
  0
BLOCK
  8
0
  2
ANNULUSV
 70
64
 10
0.0000
 20
0.0000
 30
0.0000
  3
ANNULUSV
  0
CIRCLE
  8
0
 10
0.0000
 20
0.0000
 30
0.0000
 40
0.5000
  0
ENDBLK
  8
0
  0
BLOCK
  8
0
  2
THERMALV
 70
64
 10
0.0000
 20
0.0000
 30
0.0000
  3
THERMALV
  0
POLYLINE
  8
0
 66
1
 10
0.0000
 20
0.0000
 30
0.0000
 40
0.0000
 41
0.0000
 70
1
  0
VERTEX
  8
0
 10
-0.2379
 20
0.4000
 30
0.0000
  0
VERTEX
  8
0
 10
0.2379
 20
0.4000
 30
0.0000
 42
1.0000
  0
VERTEX
  8
0
 10
0.2379
 20
0.5000
 30
0.0000
  0
VERTEX
  8
0
 10
-0.2379
 20
0.5000
 30
0.0000
 42
1.0000
  0
SEQEND
  8
0
  0
POLYLINE
  8
0
 66
1
 10
0.0000
 20
0.0000
 30
0.0000
 40
0.0000
 41
0.0000
 70
1
  0
VERTEX
  8
0
 10
0.4000
 20
0.2379
 30
0.0000
  0
VERTEX
  8
0
 10
0.4000
 20
-0.2379
 30
0.0000
 42
1.0000
  0
VERTEX
  8
0
 10
0.5000
 20
-0.2379
 30
0.0000
  0
VERTEX
  8
0
 10
0.5000
 20
0.2379
 30
0.0000
 42
1.0000
  0
SEQEND
  8
0
  0
POLYLINE
  8
0
 66
1
 10
0.0000
 20
0.0000
 30
0.0000
 40
0.0000
 41
0.0000
 70
1
  0
VERTEX
  8
0
 10
0.2379
 20
-0.4000
 30
0.0000
  0
VERTEX
  8
0
 10
-0.2379
 20
-0.4000
 30
0.0000
 42
1.0000
  0
VERTEX
  8
0
 10
-0.2379
 20
-0.5000
 30
0.0000
  0
VERTEX
  8
0
 10
0.2379
 20
-0.5000
 30
0.0000
 42
1.0000
  0
SEQEND
  8
0
  0
POLYLINE
  8
0
 66
1
 10
0.0000
 20
0.0000
 30
0.0000
 40
0.0000
 41
0.0000
 70
1
  0
VERTEX
  8
0
 10
-0.4000
 20
-0.2379
 30
0.0000
  0
VERTEX
  8
0
 10
-0.4000
 20
0.2379
 30
0.0000
 42
1.0000
  0
VERTEX
  8
0
 10
-0.5000
 20
0.2379
 30
0.0000
  0
VERTEX
  8
0
 10
-0.5000
 20
-0.2379
 30
0.0000
 42
1.0000
  0
SEQEND
  8
0
  0
ENDBLK
  8
0
  0
BLOCK
  8
0
  2
LONGP100
 70
64
 10
0.0000
 20
0.0000
 30
0.0000
  3
LONGP100
  0
POLYLINE
  8
0
 66
1
 10
0.0000
 20
0.0000
 30
0.0000
 40
0.0000
 41
0.0000
 70
1
  0
VERTEX
  8
0
 10
-0.5000
 20
-0.5000
 30
0.0000
  0
VERTEX
  8
0
 10
0.5000
 20
-0.5000
 30
0.0000
 42
1.0000
  0
VERTEX
  8
0
 10
0.5000
 20
0.5000
 30
0.0000
  0
VERTEX
  8
0
 10
-0.5000
 20
0.5000
 30
0.0000
 42
1.0000
  0
SEQEND
  8
0
  0
ENDBLK
  8
0
  0
ENDSEC
  0
SECTION
  2
ENTITIES
  0
POLYLINE
  8
20
 66
1
 10
0.0000
 20
0.0000
 30
0.0000
 40
0.0000
 41
0.0000
 70
1
  0
VERTEX
  8
20
 10
0.0000
 20
-0.2032
 30
0.0000
  0
VERTEX
  8
20
 10
55.8800
 20
-0.2032
 30
0.0000
 42
1.0000
  0
VERTEX
  8
20
 10
55.8800
 20
0.2032
 30
0.0000
  0
VERTEX
  8
20
 10
0.0000
 20
0.2032
 30
0.0000
 42
1.0000
  0
SEQEND
  8
0
  0
POLYLINE
  8
20
 66
1
 10
0.0000
 20
0.0000
 30
0.0000
 40
0.0000
 41
0.0000
 70
1
  0
VERTEX
  8
20
 10
56.0832
 20
0.0000
 30
0.0000
  0
VERTEX
  8
20
 10
56.0832
 20
44.4500
 30
0.0000
 42
1.0000
  0
VERTEX
  8
20
 10
55.6768
 20
44.4500
 30
0.0000
  0
VERTEX
  8
20
 10
55.6768
 20
0.0000
 30
0.0000
 42
1.0000
  0
SEQEND
  8
0
  0
POLYLINE
  8
20
 66
1
 10
0.0000
 20
0.0000
 30
0.0000
 40
0.0000
 41
0.0000
 70
1
  0
VERTEX
  8
20
 10
55.8800
 20
44.6532
 30
0.0000
  0
VERTEX
  8
20
 10
0.0000
 20
44.6532
 30
0.0000
 42
1.0000
  0
VERTEX
  8
20
 10
0.0000
 20
44.2468
 30
0.0000
  0
VERTEX
  8
20
 10
55.8800
 20
44.2468
 30
0.0000
 42
1.0000
  0
SEQEND
  8
0
  0
POLYLINE
  8
20
 66
1
 10
0.0000
 20
0.0000
 30
0.0000
 40
0.0000
 41
0.0000
 70
1
  0
VERTEX
  8
20
 10
-0.2032
 20
44.4500
 30
0.0000
  0
VERTEX
  8
20
 10
-0.2032
 20
0.0000
 30
0.0000
 42
1.0000
  0
VERTEX
  8
20
 10
0.2032
 20
0.0000
 30
0.0000
  0
VERTEX
  8
20
 10
0.2032
 20
44.4500
 30
0.0000
 42
1.0000
  0
SEQEND
  8
0
  0
POLYLINE
  8
51
 66
1
 10
0.0000
 20
0.0000
 30
0.0000
 40
0.0000
 41
0.0000
 70
1
  0
VERTEX
  8
51
 10
47.6504
 20
18.4150
 30
0.0000
  0
VERTEX
  8
51
 10
47.6504
 20
16.8910
 30
0.0000
 42
1.0000
  0
VERTEX
  8
51
 10
47.8536
 20
16.8910
 30
0.0000
  0
VERTEX
  8
51
 10
47.8536
 20
18.4150
 30
0.0000
 42
1.0000
  0
SEQEND
  8
0
  0
POLYLINE
  8
51
 66
1
 10
0.0000
 20
0.0000
 30
0.0000
 40
0.0000
 41
0.0000
 70
1
  0
VERTEX
  8
51
 10
47.6802
 20
16.8192
 30
0.0000
  0
VERTEX
  8
51
 10
48.1882
 20
16.3112
 30
0.0000
 42
1.0000
  0
VERTEX
  8
51
 10
48.3318
 20
16.4548
 30
0.0000
  0
VERTEX
  8
51
 10
47.8238
 20
16.9628
 30
0.0000
 42
1.0000
  0
SEQEND
  8
0
  0
POLYLINE
  8
51
 66
1
 10
0.0000
 20
0.0000
 30
0.0000
 40
0.0000
 41
0.0000
 70
1
  0
VERTEX
  8
51
 10
48.1882
 20
22.5508
 30
0.0000
  0
VERTEX
  8
51
 10
47.6802
 20
22.0428
 30
0.0000
 42
1.0000
  0
VERTEX
  8
51
 10
47.8238
 20
21.8992
 30
0.0000
  0
VERTEX
  8
51
 10
48.3318
 20
22.4072
 30
0.0000
 42
1.0000
  0
SEQEND
  8
0
  0
POLYLINE
  8
51
 66
1
 10
0.0000
 20
0.0000
 30
0.0000
 40
0.0000
 41
0.0000
 70
1
  0
VERTEX
  8
51
 10
47.6504
 20
21.9710
 30
0.0000
  0
VERTEX
  8
51
 10
47.6504
 20
20.4470
 30
0.0000
 42
1.0000
  0
VERTEX
  8
51
 10
47.8536
 20
20.4470
 30
0.0000
  0
VERTEX
  8
51
 10
47.8536
 20
21.9710
 30
0.0000
 42
1.0000
  0
SEQEND
  8
0
  0
POLYLINE
  8
51
 66
1
 10
0.0000
 20
0.0000
 30
0.0000
 40
0.0000
 41
0.0000
 70
1
  0
VERTEX
  8
51
 10
53.4118
 20
16.3112
 30
0.0000
  0
VERTEX
  8
51
 10
53.9198
 20
16.8192
 30
0.0000
 42
1.0000
  0
VERTEX
  8
51
 10
53.7762
 20
16.9628
 30
0.0000
  0
VERTEX
  8
51
 10
53.2682
 20
16.4548
 30
0.0000
 42
1.0000
  0
SEQEND
  8
0
  0
POLYLINE
  8
51
 66
1
 10
0.0000
 20
0.0000
 30
0.0000
 40
0.0000
 41
0.0000
 70
1
  0
VERTEX
  8
51
 10
53.9496
 20
16.8910
 30
0.0000
  0
VERTEX
  8
51
 10
53.9496
 20
18.4150
 30
0.0000
 42
1.0000
  0
VERTEX
  8
51
 10
53.7464
 20
18.4150
 30
0.0000
  0
VERTEX
  8
51
 10
53.7464
 20
16.8910
 30
0.0000
 42
1.0000
  0
SEQEND
  8
0
  0
POLYLINE
  8
51
 66
1
 10
0.0000
 20
0.0000
 30
0.0000
 40
0.0000
 41
0.0000
 70
1
  0
VERTEX
  8
51
 10
53.2682
 20
22.4072
 30
0.0000
  0
VERTEX
  8
51
 10
53.7762
 20
21.8992
 30
0.0000
 42
1.0000
  0
VERTEX
  8
51
 10
53.9198
 20
22.0428
 30
0.0000
  0
VERTEX
  8
51
 10
53.4118
 20
22.5508
 30
0.0000
 42
1.0000
  0
SEQEND
  8
0
  0
POLYLINE
  8
51
 66
1
 10
0.0000
 20
0.0000
 30
0.0000
 40
0.0000
 41
0.0000
 70
1
  0
VERTEX
  8
51
 10
53.7464
 20
21.9710
 30
0.0000
  0
VERTEX
  8
51
 10
53.7464
 20
20.4470
 30
0.0000
 42
1.0000
  0
VERTEX
  8
51
 10
53.9496
 20
20.4470
 30
0.0000
  0
VERTEX
  8
51
 10
53.9496
 20
21.9710
 30
0.0000
 42
1.0000
  0
SEQEND
  8
0
  0
POLYLINE
  8
51
 66
1
 10
0.0000
 20
0.0000
 30
0.0000
 40
0.0000
 41
0.0000
 70
1
  0
VERTEX
  8
51
 10
48.2600
 20
22.3774
 30
0.0000
  0
VERTEX
  8
51
 10
48.6410
 20
22.3774
 30
0.0000
 42
1.0000
  0
VERTEX
  8
51
 10
48.6410
 20
22.5806
 30
0.0000
  0
VERTEX
  8
51
 10
48.2600
 20
22.5806
 30
0.0000
 42
1.0000
  0
SEQEND
  8
0
  0
POLYLINE
  8
51
 66
1
 10
0.0000
 20
0.0000
 30
0.0000
 40
0.0000
 41
0.0000
 70
1
  0
VERTEX
  8
51
 10
53.3400
 20
22.5806
 30
0.0000
  0
VERTEX
  8
51
 10
52.9590
 20
22.5806
 30
0.0000
 42
1.0000
  0
VERTEX
  8
51
 10
52.9590
 20
22.3774
 30
0.0000
  0
VERTEX
  8
51
 10
53.3400
 20
22.3774
 30
0.0000
 42
1.0000
  0
SEQEND
  8
0
  0
POLYLINE
  8
51
 66
1
 10
0.0000
 20
0.0000
 30
0.0000
 40
0.0000
 41
0.0000
 70
1
  0
VERTEX
  8
51
 10
53.3400
 20
16.4846
 30
0.0000
  0
VERTEX
  8
51
 10
52.9590
 20
16.4846
 30
0.0000
 42
1.0000
  0
VERTEX
  8
51
 10
52.9590
 20
16.2814
 30
0.0000
  0
VERTEX
  8
51
 10
53.3400
 20
16.2814
 30
0.0000
 42
1.0000
  0
SEQEND
  8
0
  0
POLYLINE
  8
51
 66
1
 10
0.0000
 20
0.0000
 30
0.0000
 40
0.0000
 41
0.0000
 70
1
  0
VERTEX
  8
51
 10
48.2600
 20
16.2814
 30
0.0000
  0
VERTEX
  8
51
 10
48.6410
 20
16.2814
 30
0.0000
 42
1.0000
  0
VERTEX
  8
51
 10
48.6410
 20
16.4846
 30
0.0000
  0
VERTEX
  8
51
 10
48.2600
 20
16.4846
 30
0.0000
 42
1.0000
  0
SEQEND
  8
0
  0
POLYLINE
  8
51
 66
1
 10
0.0000
 20
0.0000
 30
0.0000
 40
0.0000
 41
0.0000
 70
1
  0
VERTEX
  8
51
 10
53.4416
 20
18.1610
 30
0.0000
  0
VERTEX
  8
51
 10
53.4416
 20
18.9230
 30
0.0000
 42
1.0000
  0
VERTEX
  8
51
 10
53.2384
 20
18.9230
 30
0.0000
  0
VERTEX
  8
51
 10
53.2384
 20
18.1610
 30
0.0000
 42
1.0000
  0
SEQEND
  8
0
  0
POLYLINE
  8
51
 66
1
 10
0.0000
 20
0.0000
 30
0.0000
 40
0.0000
 41
0.0000
 70
1
  0
VERTEX
  8
51
 10
53.4416
 20
19.9390
 30
0.0000
  0
VERTEX
  8
51
 10
53.4416
 20
20.7010
 30
0.0000
 42
1.0000
  0
VERTEX
  8
51
 10
53.2384
 20
20.7010
 30
0.0000
  0
VERTEX
  8
51
 10
53.2384
 20
19.9390
 30
0.0000
 42
1.0000
  0
SEQEND
  8
0
  0
POLYLINE
  8
51
 66
1
 10
0.0000
 20
0.0000
 30
0.0000
 40
0.0000
 41
0.0000
 70
1
  0
VERTEX
  8
51
 10
53.4334
 20
18.9630
 30
0.0000
  0
VERTEX
  8
51
 10
53.0524
 20
19.8520
 30
0.0000
 42
1.0000
  0
VERTEX
  8
51
 10
52.8656
 20
19.7720
 30
0.0000
  0
VERTEX
  8
51
 10
53.2466
 20
18.8830
 30
0.0000
 42
1.0000
  0
SEQEND
  8
0
  0
INSERT
  8
17
  2
ROUNDP
 10
54.0512
 20
17.1704
 30
0.0000
 41
1.8796
 42
1.8796
 43
1.0000
 50
180.0000
  0
INSERT
  8
17
  2
ROUNDP
 10
54.0512
 20
17.1704
 30
0.0000
 41
1.8796
 42
1.8796
 43
1.0000
 50
180.0000
  0
CIRCLE
  8
44
 10
54.0512
 20
17.1704
 30
0.0000
 40
0.5080
  0
INSERT
  8
17
  2
ROUNDP
 10
47.5488
 20
17.1704
 30
0.0000
 41
1.8796
 42
1.8796
 43
1.0000
 50
180.0000
  0
INSERT
  8
17
  2
ROUNDP
 10
47.5488
 20
17.1704
 30
0.0000
 41
1.8796
 42
1.8796
 43
1.0000
 50
180.0000
  0
CIRCLE
  8
44
 10
47.5488
 20
17.1704
 30
0.0000
 40
0.5080
  0
INSERT
  8
17
  2
ROUNDP
 10
54.0512
 20
21.6916
 30
0.0000
 41
1.8796
 42
1.8796
 43
1.0000
 50
180.0000
  0
INSERT
  8
17
  2
ROUNDP
 10
54.0512
 20
21.6916
 30
0.0000
 41
1.8796
 42
1.8796
 43
1.0000
 50
180.0000
  0
CIRCLE
  8
44
 10
54.0512
 20
21.6916
 30
0.0000
 40
0.5080
  0
INSERT
  8
17
  2
ROUNDP
 10
47.5488
 20
21.6916
 30
0.0000
 41
1.8796
 42
1.8796
 43
1.0000
 50
180.0000
  0
INSERT
  8
17
  2
ROUNDP
 10
47.5488
 20
21.6916
 30
0.0000
 41
1.8796
 42
1.8796
 43
1.0000
 50
180.0000
  0
CIRCLE
  8
44
 10
47.5488
 20
21.6916
 30
0.0000
 40
0.5080
  0
POLYLINE
  8
51
 66
1
 10
0.0000
 20
0.0000
 30
0.0000
 40
0.0000
 41
0.0000
 70
1
  0
VERTEX
  8
51
 10
47.6504
 20
10.7950
 30
0.0000
  0
VERTEX
  8
51
 10
47.6504
 20
9.2710
 30
0.0000
 42
1.0000
  0
VERTEX
  8
51
 10
47.8536
 20
9.2710
 30
0.0000
  0
VERTEX
  8
51
 10
47.8536
 20
10.7950
 30
0.0000
 42
1.0000
  0
SEQEND
  8
0
  0
POLYLINE
  8
51
 66
1
 10
0.0000
 20
0.0000
 30
0.0000
 40
0.0000
 41
0.0000
 70
1
  0
VERTEX
  8
51
 10
47.6802
 20
9.1992
 30
0.0000
  0
VERTEX
  8
51
 10
48.1882
 20
8.6912
 30
0.0000
 42
1.0000
  0
VERTEX
  8
51
 10
48.3318
 20
8.8348
 30
0.0000
  0
VERTEX
  8
51
 10
47.8238
 20
9.3428
 30
0.0000
 42
1.0000
  0
SEQEND
  8
0
  0
POLYLINE
  8
51
 66
1
 10
0.0000
 20
0.0000
 30
0.0000
 40
0.0000
 41
0.0000
 70
1
  0
VERTEX
  8
51
 10
48.1882
 20
14.9308
 30
0.0000
  0
VERTEX
  8
51
 10
47.6802
 20
14.4228
 30
0.0000
 42
1.0000
  0
VERTEX
  8
51
 10
47.8238
 20
14.2792
 30
0.0000
  0
VERTEX
  8
51
 10
48.3318
 20
14.7872
 30
0.0000
 42
1.0000
  0
SEQEND
  8
0
  0
POLYLINE
  8
51
 66
1
 10
0.0000
 20
0.0000
 30
0.0000
 40
0.0000
 41
0.0000
 70
1
  0
VERTEX
  8
51
 10
47.6504
 20
14.3510
 30
0.0000
  0
VERTEX
  8
51
 10
47.6504
 20
12.8270
 30
0.0000
 42
1.0000
  0
VERTEX
  8
51
 10
47.8536
 20
12.8270
 30
0.0000
  0
VERTEX
  8
51
 10
47.8536
 20
14.3510
 30
0.0000
 42
1.0000
  0
SEQEND
  8
0
  0
POLYLINE
  8
51
 66
1
 10
0.0000
 20
0.0000
 30
0.0000
 40
0.0000
 41
0.0000
 70
1
  0
VERTEX
  8
51
 10
53.4118
 20
8.6912
 30
0.0000
  0
VERTEX
  8
51
 10
53.9198
 20
9.1992
 30
0.0000
 42
1.0000
  0
VERTEX
  8
51
 10
53.7762
 20
9.3428
 30
0.0000
  0
VERTEX
  8
51
 10
53.2682
 20
8.8348
 30
0.0000
 42
1.0000
  0
SEQEND
  8
0
  0
POLYLINE
  8
51
 66
1
 10
0.0000
 20
0.0000
 30
0.0000
 40
0.0000
 41
0.0000
 70
1
  0
VERTEX
  8
51
 10
53.9496
 20
9.2710
 30
0.0000
  0
VERTEX
  8
51
 10
53.9496
 20
10.7950
 30
0.0000
 42
1.0000
  0
VERTEX
  8
51
 10
53.7464
 20
10.7950
 30
0.0000
  0
VERTEX
  8
51
 10
53.7464
 20
9.2710
 30
0.0000
 42
1.0000
  0
SEQEND
  8
0
  0
POLYLINE
  8
51
 66
1
 10
0.0000
 20
0.0000
 30
0.0000
 40
0.0000
 41
0.0000
 70
1
  0
VERTEX
  8
51
 10
53.2682
 20
14.7872
 30
0.0000
  0
VERTEX
  8
51
 10
53.7762
 20
14.2792
 30
0.0000
 42
1.0000
  0
VERTEX
  8
51
 10
53.9198
 20
14.4228
 30
0.0000
  0
VERTEX
  8
51
 10
53.4118
 20
14.9308
 30
0.0000
 42
1.0000
  0
SEQEND
  8
0
  0
POLYLINE
  8
51
 66
1
 10
0.0000
 20
0.0000
 30
0.0000
 40
0.0000
 41
0.0000
 70
1
  0
VERTEX
  8
51
 10
53.7464
 20
14.3510
 30
0.0000
  0
VERTEX
  8
51
 10
53.7464
 20
12.8270
 30
0.0000
 42
1.0000
  0
VERTEX
  8
51
 10
53.9496
 20
12.8270
 30
0.0000
  0
VERTEX
  8
51
 10
53.9496
 20
14.3510
 30
0.0000
 42
1.0000
  0
SEQEND
  8
0
  0
POLYLINE
  8
51
 66
1
 10
0.0000
 20
0.0000
 30
0.0000
 40
0.0000
 41
0.0000
 70
1
  0
VERTEX
  8
51
 10
48.2600
 20
14.7574
 30
0.0000
  0
VERTEX
  8
51
 10
48.6410
 20
14.7574
 30
0.0000
 42
1.0000
  0
VERTEX
  8
51
 10
48.6410
 20
14.9606
 30
0.0000
  0
VERTEX
  8
51
 10
48.2600
 20
14.9606
 30
0.0000
 42
1.0000
  0
SEQEND
  8
0
  0
POLYLINE
  8
51
 66
1
 10
0.0000
 20
0.0000
 30
0.0000
 40
0.0000
 41
0.0000
 70
1
  0
VERTEX
  8
51
 10
53.3400
 20
14.9606
 30
0.0000
  0
VERTEX
  8
51
 10
52.9590
 20
14.9606
 30
0.0000
 42
1.0000
  0
VERTEX
  8
51
 10
52.9590
 20
14.7574
 30
0.0000
  0
VERTEX
  8
51
 10
53.3400
 20
14.7574
 30
0.0000
 42
1.0000
  0
SEQEND
  8
0
  0
POLYLINE
  8
51
 66
1
 10
0.0000
 20
0.0000
 30
0.0000
 40
0.0000
 41
0.0000
 70
1
  0
VERTEX
  8
51
 10
53.3400
 20
8.8646
 30
0.0000
  0
VERTEX
  8
51
 10
52.9590
 20
8.8646
 30
0.0000
 42
1.0000
  0
VERTEX
  8
51
 10
52.9590
 20
8.6614
 30
0.0000
  0
VERTEX
  8
51
 10
53.3400
 20
8.6614
 30
0.0000
 42
1.0000
  0
SEQEND
  8
0
  0
POLYLINE
  8
51
 66
1
 10
0.0000
 20
0.0000
 30
0.0000
 40
0.0000
 41
0.0000
 70
1
  0
VERTEX
  8
51
 10
48.2600
 20
8.6614
 30
0.0000
  0
VERTEX
  8
51
 10
48.6410
 20
8.6614
 30
0.0000
 42
1.0000
  0
VERTEX
  8
51
 10
48.6410
 20
8.8646
 30
0.0000
  0
VERTEX
  8
51
 10
48.2600
 20
8.8646
 30
0.0000
 42
1.0000
  0
SEQEND
  8
0
  0
POLYLINE
  8
51
 66
1
 10
0.0000
 20
0.0000
 30
0.0000
 40
0.0000
 41
0.0000
 70
1
  0
VERTEX
  8
51
 10
53.4416
 20
10.5410
 30
0.0000
  0
VERTEX
  8
51
 10
53.4416
 20
11.3030
 30
0.0000
 42
1.0000
  0
VERTEX
  8
51
 10
53.2384
 20
11.3030
 30
0.0000
  0
VERTEX
  8
51
 10
53.2384
 20
10.5410
 30
0.0000
 42
1.0000
  0
SEQEND
  8
0
  0
POLYLINE
  8
51
 66
1
 10
0.0000
 20
0.0000
 30
0.0000
 40
0.0000
 41
0.0000
 70
1
  0
VERTEX
  8
51
 10
53.4416
 20
12.3190
 30
0.0000
  0
VERTEX
  8
51
 10
53.4416
 20
13.0810
 30
0.0000
 42
1.0000
  0
VERTEX
  8
51
 10
53.2384
 20
13.0810
 30
0.0000
  0
VERTEX
  8
51
 10
53.2384
 20
12.3190
 30
0.0000
 42
1.0000
  0
SEQEND
  8
0
  0
POLYLINE
  8
51
 66
1
 10
0.0000
 20
0.0000
 30
0.0000
 40
0.0000
 41
0.0000
 70
1
  0
VERTEX
  8
51
 10
53.4334
 20
11.3430
 30
0.0000
  0
VERTEX
  8
51
 10
53.0524
 20
12.2320
 30
0.0000
 42
1.0000
  0
VERTEX
  8
51
 10
52.8656
 20
12.1520
 30
0.0000
  0
VERTEX
  8
51
 10
53.2466
 20
11.2630
 30
0.0000
 42
1.0000
  0
SEQEND
  8
0
  0
INSERT
  8
17
  2
ROUNDP
 10
54.0512
 20
9.5504
 30
0.0000
 41
1.8796
 42
1.8796
 43
1.0000
 50
180.0000
  0
INSERT
  8
17
  2
ROUNDP
 10
54.0512
 20
9.5504
 30
0.0000
 41
1.8796
 42
1.8796
 43
1.0000
 50
180.0000
  0
CIRCLE
  8
44
 10
54.0512
 20
9.5504
 30
0.0000
 40
0.5080
  0
INSERT
  8
17
  2
ROUNDP
 10
47.5488
 20
9.5504
 30
0.0000
 41
1.8796
 42
1.8796
 43
1.0000
 50
180.0000
  0
INSERT
  8
17
  2
ROUNDP
 10
47.5488
 20
9.5504
 30
0.0000
 41
1.8796
 42
1.8796
 43
1.0000
 50
180.0000
  0
CIRCLE
  8
44
 10
47.5488
 20
9.5504
 30
0.0000
 40
0.5080
  0
INSERT
  8
17
  2
ROUNDP
 10
54.0512
 20
14.0716
 30
0.0000
 41
1.8796
 42
1.8796
 43
1.0000
 50
180.0000
  0
INSERT
  8
17
  2
ROUNDP
 10
54.0512
 20
14.0716
 30
0.0000
 41
1.8796
 42
1.8796
 43
1.0000
 50
180.0000
  0
CIRCLE
  8
44
 10
54.0512
 20
14.0716
 30
0.0000
 40
0.5080
  0
INSERT
  8
17
  2
ROUNDP
 10
47.5488
 20
14.0716
 30
0.0000
 41
1.8796
 42
1.8796
 43
1.0000
 50
180.0000
  0
INSERT
  8
17
  2
ROUNDP
 10
47.5488
 20
14.0716
 30
0.0000
 41
1.8796
 42
1.8796
 43
1.0000
 50
180.0000
  0
CIRCLE
  8
44
 10
47.5488
 20
14.0716
 30
0.0000
 40
0.5080
  0
POLYLINE
  8
51
 66
1
 10
0.0000
 20
0.0000
 30
0.0000
 40
0.0000
 41
0.0000
 70
1
  0
VERTEX
  8
51
 10
47.6504
 20
3.1750
 30
0.0000
  0
VERTEX
  8
51
 10
47.6504
 20
1.6510
 30
0.0000
 42
1.0000
  0
VERTEX
  8
51
 10
47.8536
 20
1.6510
 30
0.0000
  0
VERTEX
  8
51
 10
47.8536
 20
3.1750
 30
0.0000
 42
1.0000
  0
SEQEND
  8
0
  0
POLYLINE
  8
51
 66
1
 10
0.0000
 20
0.0000
 30
0.0000
 40
0.0000
 41
0.0000
 70
1
  0
VERTEX
  8
51
 10
47.6802
 20
1.5792
 30
0.0000
  0
VERTEX
  8
51
 10
48.1882
 20
1.0712
 30
0.0000
 42
1.0000
  0
VERTEX
  8
51
 10
48.3318
 20
1.2148
 30
0.0000
  0
VERTEX
  8
51
 10
47.8238
 20
1.7228
 30
0.0000
 42
1.0000
  0
SEQEND
  8
0
  0
POLYLINE
  8
51
 66
1
 10
0.0000
 20
0.0000
 30
0.0000
 40
0.0000
 41
0.0000
 70
1
  0
VERTEX
  8
51
 10
48.1882
 20
7.3108
 30
0.0000
  0
VERTEX
  8
51
 10
47.6802
 20
6.8028
 30
0.0000
 42
1.0000
  0
VERTEX
  8
51
 10
47.8238
 20
6.6592
 30
0.0000
  0
VERTEX
  8
51
 10
48.3318
 20
7.1672
 30
0.0000
 42
1.0000
  0
SEQEND
  8
0
  0
POLYLINE
  8
51
 66
1
 10
0.0000
 20
0.0000
 30
0.0000
 40
0.0000
 41
0.0000
 70
1
  0
VERTEX
  8
51
 10
47.6504
 20
6.7310
 30
0.0000
  0
VERTEX
  8
51
 10
47.6504
 20
5.2070
 30
0.0000
 42
1.0000
  0
VERTEX
  8
51
 10
47.8536
 20
5.2070
 30
0.0000
  0
VERTEX
  8
51
 10
47.8536
 20
6.7310
 30
0.0000
 42
1.0000
  0
SEQEND
  8
0
  0
POLYLINE
  8
51
 66
1
 10
0.0000
 20
0.0000
 30
0.0000
 40
0.0000
 41
0.0000
 70
1
  0
VERTEX
  8
51
 10
53.4118
 20
1.0712
 30
0.0000
  0
VERTEX
  8
51
 10
53.9198
 20
1.5792
 30
0.0000
 42
1.0000
  0
VERTEX
  8
51
 10
53.7762
 20
1.7228
 30
0.0000
  0
VERTEX
  8
51
 10
53.2682
 20
1.2148
 30
0.0000
 42
1.0000
  0
SEQEND
  8
0
  0
POLYLINE
  8
51
 66
1
 10
0.0000
 20
0.0000
 30
0.0000
 40
0.0000
 41
0.0000
 70
1
  0
VERTEX
  8
51
 10
53.9496
 20
1.6510
 30
0.0000
  0
VERTEX
  8
51
 10
53.9496
 20
3.1750
 30
0.0000
 42
1.0000
  0
VERTEX
  8
51
 10
53.7464
 20
3.1750
 30
0.0000
  0
VERTEX
  8
51
 10
53.7464
 20
1.6510
 30
0.0000
 42
1.0000
  0
SEQEND
  8
0
  0
POLYLINE
  8
51
 66
1
 10
0.0000
 20
0.0000
 30
0.0000
 40
0.0000
 41
0.0000
 70
1
  0
VERTEX
  8
51
 10
53.2682
 20
7.1672
 30
0.0000
  0
VERTEX
  8
51
 10
53.7762
 20
6.6592
 30
0.0000
 42
1.0000
  0
VERTEX
  8
51
 10
53.9198
 20
6.8028
 30
0.0000
  0
VERTEX
  8
51
 10
53.4118
 20
7.3108
 30
0.0000
 42
1.0000
  0
SEQEND
  8
0
  0
POLYLINE
  8
51
 66
1
 10
0.0000
 20
0.0000
 30
0.0000
 40
0.0000
 41
0.0000
 70
1
  0
VERTEX
  8
51
 10
53.7464
 20
6.7310
 30
0.0000
  0
VERTEX
  8
51
 10
53.7464
 20
5.2070
 30
0.0000
 42
1.0000
  0
VERTEX
  8
51
 10
53.9496
 20
5.2070
 30
0.0000
  0
VERTEX
  8
51
 10
53.9496
 20
6.7310
 30
0.0000
 42
1.0000
  0
SEQEND
  8
0
  0
POLYLINE
  8
51
 66
1
 10
0.0000
 20
0.0000
 30
0.0000
 40
0.0000
 41
0.0000
 70
1
  0
VERTEX
  8
51
 10
48.2600
 20
7.1374
 30
0.0000
  0
VERTEX
  8
51
 10
48.6410
 20
7.1374
 30
0.0000
 42
1.0000
  0
VERTEX
  8
51
 10
48.6410
 20
7.3406
 30
0.0000
  0
VERTEX
  8
51
 10
48.2600
 20
7.3406
 30
0.0000
 42
1.0000
  0
SEQEND
  8
0
  0
POLYLINE
  8
51
 66
1
 10
0.0000
 20
0.0000
 30
0.0000
 40
0.0000
 41
0.0000
 70
1
  0
VERTEX
  8
51
 10
53.3400
 20
7.3406
 30
0.0000
  0
VERTEX
  8
51
 10
52.9590
 20
7.3406
 30
0.0000
 42
1.0000
  0
VERTEX
  8
51
 10
52.9590
 20
7.1374
 30
0.0000
  0
VERTEX
  8
51
 10
53.3400
 20
7.1374
 30
0.0000
 42
1.0000
  0
SEQEND
  8
0
  0
POLYLINE
  8
51
 66
1
 10
0.0000
 20
0.0000
 30
0.0000
 40
0.0000
 41
0.0000
 70
1
  0
VERTEX
  8
51
 10
53.3400
 20
1.2446
 30
0.0000
  0
VERTEX
  8
51
 10
52.9590
 20
1.2446
 30
0.0000
 42
1.0000
  0
VERTEX
  8
51
 10
52.9590
 20
1.0414
 30
0.0000
  0
VERTEX
  8
51
 10
53.3400
 20
1.0414
 30
0.0000
 42
1.0000
  0
SEQEND
  8
0
  0
POLYLINE
  8
51
 66
1
 10
0.0000
 20
0.0000
 30
0.0000
 40
0.0000
 41
0.0000
 70
1
  0
VERTEX
  8
51
 10
48.2600
 20
1.0414
 30
0.0000
  0
VERTEX
  8
51
 10
48.6410
 20
1.0414
 30
0.0000
 42
1.0000
  0
VERTEX
  8
51
 10
48.6410
 20
1.2446
 30
0.0000
  0
VERTEX
  8
51
 10
48.2600
 20
1.2446
 30
0.0000
 42
1.0000
  0
SEQEND
  8
0
  0
POLYLINE
  8
51
 66
1
 10
0.0000
 20
0.0000
 30
0.0000
 40
0.0000
 41
0.0000
 70
1
  0
VERTEX
  8
51
 10
53.4416
 20
2.9210
 30
0.0000
  0
VERTEX
  8
51
 10
53.4416
 20
3.6830
 30
0.0000
 42
1.0000
  0
VERTEX
  8
51
 10
53.2384
 20
3.6830
 30
0.0000
  0
VERTEX
  8
51
 10
53.2384
 20
2.9210
 30
0.0000
 42
1.0000
  0
SEQEND
  8
0
  0
POLYLINE
  8
51
 66
1
 10
0.0000
 20
0.0000
 30
0.0000
 40
0.0000
 41
0.0000
 70
1
  0
VERTEX
  8
51
 10
53.4416
 20
4.6990
 30
0.0000
  0
VERTEX
  8
51
 10
53.4416
 20
5.4610
 30
0.0000
 42
1.0000
  0
VERTEX
  8
51
 10
53.2384
 20
5.4610
 30
0.0000
  0
VERTEX
  8
51
 10
53.2384
 20
4.6990
 30
0.0000
 42
1.0000
  0
SEQEND
  8
0
  0
POLYLINE
  8
51
 66
1
 10
0.0000
 20
0.0000
 30
0.0000
 40
0.0000
 41
0.0000
 70
1
  0
VERTEX
  8
51
 10
53.4334
 20
3.7230
 30
0.0000
  0
VERTEX
  8
51
 10
53.0524
 20
4.6120
 30
0.0000
 42
1.0000
  0
VERTEX
  8
51
 10
52.8656
 20
4.5320
 30
0.0000
  0
VERTEX
  8
51
 10
53.2466
 20
3.6430
 30
0.0000
 42
1.0000
  0
SEQEND
  8
0
  0
INSERT
  8
17
  2
ROUNDP
 10
54.0512
 20
1.9304
 30
0.0000
 41
1.8796
 42
1.8796
 43
1.0000
 50
180.0000
  0
INSERT
  8
17
  2
ROUNDP
 10
54.0512
 20
1.9304
 30
0.0000
 41
1.8796
 42
1.8796
 43
1.0000
 50
180.0000
  0
CIRCLE
  8
44
 10
54.0512
 20
1.9304
 30
0.0000
 40
0.5080
  0
INSERT
  8
17
  2
ROUNDP
 10
47.5488
 20
1.9304
 30
0.0000
 41
1.8796
 42
1.8796
 43
1.0000
 50
180.0000
  0
INSERT
  8
17
  2
ROUNDP
 10
47.5488
 20
1.9304
 30
0.0000
 41
1.8796
 42
1.8796
 43
1.0000
 50
180.0000
  0
CIRCLE
  8
44
 10
47.5488
 20
1.9304
 30
0.0000
 40
0.5080
  0
INSERT
  8
17
  2
ROUNDP
 10
54.0512
 20
6.4516
 30
0.0000
 41
1.8796
 42
1.8796
 43
1.0000
 50
180.0000
  0
INSERT
  8
17
  2
ROUNDP
 10
54.0512
 20
6.4516
 30
0.0000
 41
1.8796
 42
1.8796
 43
1.0000
 50
180.0000
  0
CIRCLE
  8
44
 10
54.0512
 20
6.4516
 30
0.0000
 40
0.5080
  0
INSERT
  8
17
  2
ROUNDP
 10
47.5488
 20
6.4516
 30
0.0000
 41
1.8796
 42
1.8796
 43
1.0000
 50
180.0000
  0
INSERT
  8
17
  2
ROUNDP
 10
47.5488
 20
6.4516
 30
0.0000
 41
1.8796
 42
1.8796
 43
1.0000
 50
180.0000
  0
CIRCLE
  8
44
 10
47.5488
 20
6.4516
 30
0.0000
 40
0.5080
  0
INSERT
  8
17
  2
ROUNDP
 10
43.1800
 20
2.5400
 30
0.0000
 41
1.6510
 42
1.6510
 43
1.0000
 50
180.0000
  0
INSERT
  8
17
  2
ROUNDP
 10
43.1800
 20
2.5400
 30
0.0000
 41
1.6510
 42
1.6510
 43
1.0000
 50
180.0000
  0
CIRCLE
  8
44
 10
43.1800
 20
2.5400
 30
0.0000
 40
0.3500
  0
INSERT
  8
17
  2
ROUNDP
 10
40.6400
 20
2.5400
 30
0.0000
 41
1.6510
 42
1.6510
 43
1.0000
 50
180.0000
  0
INSERT
  8
17
  2
ROUNDP
 10
40.6400
 20
2.5400
 30
0.0000
 41
1.6510
 42
1.6510
 43
1.0000
 50
180.0000
  0
CIRCLE
  8
44
 10
40.6400
 20
2.5400
 30
0.0000
 40
0.3500
  0
INSERT
  8
17
  2
ROUNDP
 10
39.3700
 20
27.9400
 30
0.0000
 41
1.6510
 42
1.6510
 43
1.0000
 50
270.0000
  0
INSERT
  8
17
  2
ROUNDP
 10
39.3700
 20
27.9400
 30
0.0000
 41
1.6510
 42
1.6510
 43
1.0000
 50
270.0000
  0
CIRCLE
  8
44
 10
39.3700
 20
27.9400
 30
0.0000
 40
0.3500
  0
INSERT
  8
17
  2
ROUNDP
 10
39.3700
 20
25.4000
 30
0.0000
 41
1.6510
 42
1.6510
 43
1.0000
 50
270.0000
  0
INSERT
  8
17
  2
ROUNDP
 10
39.3700
 20
25.4000
 30
0.0000
 41
1.6510
 42
1.6510
 43
1.0000
 50
270.0000
  0
CIRCLE
  8
44
 10
39.3700
 20
25.4000
 30
0.0000
 40
0.3500
  0
INSERT
  8
51
  2
RECT
 10
24.1300
 20
41.9100
 30
0.0000
 41
0.5080
 42
0.5080
 43
1.0000
 50
180.0000
  0
INSERT
  8
51
  2
RECT
 10
26.6700
 20
41.9100
 30
0.0000
 41
0.5080
 42
0.5080
 43
1.0000
 50
180.0000
  0
INSERT
  8
51
  2
RECT
 10
29.2100
 20
41.9100
 30
0.0000
 41
0.5080
 42
0.5080
 43
1.0000
 50
180.0000
  0
INSERT
  8
51
  2
RECT
 10
31.7500
 20
41.9100
 30
0.0000
 41
0.5080
 42
0.5080
 43
1.0000
 50
180.0000
  0
INSERT
  8
51
  2
RECT
 10
34.2900
 20
41.9100
 30
0.0000
 41
0.5080
 42
0.5080
 43
1.0000
 50
180.0000
  0
INSERT
  8
17
  2
ROUNDP
 10
34.2900
 20
41.7830
 30
0.0000
 41
1.8796
 42
1.8796
 43
1.0000
 50
270.0000
  0
INSERT
  8
17
  2
ROUNDP
 10
34.2900
 20
41.7830
 30
0.0000
 41
1.8796
 42
1.8796
 43
1.0000
 50
270.0000
  0
CIRCLE
  8
44
 10
34.2900
 20
41.7830
 30
0.0000
 40
0.5080
  0
INSERT
  8
17
  2
ROUNDP
 10
31.7500
 20
42.0370
 30
0.0000
 41
1.8796
 42
1.8796
 43
1.0000
 50
270.0000
  0
INSERT
  8
17
  2
ROUNDP
 10
31.7500
 20
42.0370
 30
0.0000
 41
1.8796
 42
1.8796
 43
1.0000
 50
270.0000
  0
CIRCLE
  8
44
 10
31.7500
 20
42.0370
 30
0.0000
 40
0.5080
  0
INSERT
  8
17
  2
ROUNDP
 10
29.2100
 20
41.7830
 30
0.0000
 41
1.8796
 42
1.8796
 43
1.0000
 50
270.0000
  0
INSERT
  8
17
  2
ROUNDP
 10
29.2100
 20
41.7830
 30
0.0000
 41
1.8796
 42
1.8796
 43
1.0000
 50
270.0000
  0
CIRCLE
  8
44
 10
29.2100
 20
41.7830
 30
0.0000
 40
0.5080
  0
INSERT
  8
17
  2
ROUNDP
 10
26.6700
 20
42.0370
 30
0.0000
 41
1.8796
 42
1.8796
 43
1.0000
 50
270.0000
  0
INSERT
  8
17
  2
ROUNDP
 10
26.6700
 20
42.0370
 30
0.0000
 41
1.8796
 42
1.8796
 43
1.0000
 50
270.0000
  0
CIRCLE
  8
44
 10
26.6700
 20
42.0370
 30
0.0000
 40
0.5080
  0
INSERT
  8
17
  2
ROUNDP
 10
24.1300
 20
41.7830
 30
0.0000
 41
1.8796
 42
1.8796
 43
1.0000
 50
270.0000
  0
INSERT
  8
17
  2
ROUNDP
 10
24.1300
 20
41.7830
 30
0.0000
 41
1.8796
 42
1.8796
 43
1.0000
 50
270.0000
  0
CIRCLE
  8
44
 10
24.1300
 20
41.7830
 30
0.0000
 40
0.5080
  0
INSERT
  8
51
  2
RECT
 10
8.8900
 20
6.3500
 30
0.0000
 41
0.6350
 42
0.3810
 43
1.0000
 50
0.0000
  0
INSERT
  8
51
  2
RECT
 10
11.4300
 20
6.3500
 30
0.0000
 41
0.6350
 42
0.3810
 43
1.0000
 50
0.0000
  0
INSERT
  8
51
  2
RECT
 10
13.9700
 20
6.3500
 30
0.0000
 41
0.6350
 42
0.3810
 43
1.0000
 50
0.0000
  0
INSERT
  8
51
  2
RECT
 10
16.5100
 20
6.3500
 30
0.0000
 41
0.6350
 42
0.3810
 43
1.0000
 50
0.0000
  0
INSERT
  8
51
  2
RECT
 10
19.0500
 20
6.3500
 30
0.0000
 41
0.6350
 42
0.3810
 43
1.0000
 50
0.0000
  0
INSERT
  8
51
  2
RECT
 10
21.5900
 20
6.3500
 30
0.0000
 41
0.6350
 42
0.3810
 43
1.0000
 50
0.0000
  0
INSERT
  8
17
  2
ROUNDP
 10
8.8900
 20
6.6040
 30
0.0000
 41
1.8796
 42
1.8796
 43
1.0000
 50
90.0000
  0
INSERT
  8
17
  2
ROUNDP
 10
8.8900
 20
6.6040
 30
0.0000
 41
1.8796
 42
1.8796
 43
1.0000
 50
90.0000
  0
CIRCLE
  8
44
 10
8.8900
 20
6.6040
 30
0.0000
 40
0.5080
  0
INSERT
  8
17
  2
ROUNDP
 10
11.4300
 20
6.0960
 30
0.0000
 41
1.8796
 42
1.8796
 43
1.0000
 50
90.0000
  0
INSERT
  8
17
  2
ROUNDP
 10
11.4300
 20
6.0960
 30
0.0000
 41
1.8796
 42
1.8796
 43
1.0000
 50
90.0000
  0
CIRCLE
  8
44
 10
11.4300
 20
6.0960
 30
0.0000
 40
0.5080
  0
INSERT
  8
17
  2
ROUNDP
 10
13.9700
 20
6.6040
 30
0.0000
 41
1.8796
 42
1.8796
 43
1.0000
 50
90.0000
  0
INSERT
  8
17
  2
ROUNDP
 10
13.9700
 20
6.6040
 30
0.0000
 41
1.8796
 42
1.8796
 43
1.0000
 50
90.0000
  0
CIRCLE
  8
44
 10
13.9700
 20
6.6040
 30
0.0000
 40
0.5080
  0
INSERT
  8
17
  2
ROUNDP
 10
16.5100
 20
6.0960
 30
0.0000
 41
1.8796
 42
1.8796
 43
1.0000
 50
90.0000
  0
INSERT
  8
17
  2
ROUNDP
 10
16.5100
 20
6.0960
 30
0.0000
 41
1.8796
 42
1.8796
 43
1.0000
 50
90.0000
  0
CIRCLE
  8
44
 10
16.5100
 20
6.0960
 30
0.0000
 40
0.5080
  0
INSERT
  8
17
  2
ROUNDP
 10
19.0500
 20
6.6040
 30
0.0000
 41
1.8796
 42
1.8796
 43
1.0000
 50
90.0000
  0
INSERT
  8
17
  2
ROUNDP
 10
19.0500
 20
6.6040
 30
0.0000
 41
1.8796
 42
1.8796
 43
1.0000
 50
90.0000
  0
CIRCLE
  8
44
 10
19.0500
 20
6.6040
 30
0.0000
 40
0.5080
  0
INSERT
  8
17
  2
ROUNDP
 10
21.5900
 20
6.0960
 30
0.0000
 41
1.8796
 42
1.8796
 43
1.0000
 50
90.0000
  0
INSERT
  8
17
  2
ROUNDP
 10
21.5900
 20
6.0960
 30
0.0000
 41
1.8796
 42
1.8796
 43
1.0000
 50
90.0000
  0
CIRCLE
  8
44
 10
21.5900
 20
6.0960
 30
0.0000
 40
0.5080
  0
POLYLINE
  8
51
 66
1
 10
0.0000
 20
0.0000
 30
0.0000
 40
0.0000
 41
0.0000
 70
1
  0
VERTEX
  8
51
 10
2.8956
 20
40.6400
 30
0.0000
  0
VERTEX
  8
51
 10
0.4064
 20
40.6400
 30
0.0000
 42
0.4142
  0
VERTEX
  8
51
 10
3.8100
 20
37.2364
 30
0.0000
  0
VERTEX
  8
51
 10
3.8100
 20
39.7256
 30
0.0000
 42
-0.4142
  0
SEQEND
  8
0
  0
POLYLINE
  8
51
 66
1
 10
0.0000
 20
0.0000
 30
0.0000
 40
0.0000
 41
0.0000
 70
1
  0
VERTEX
  8
51
 10
4.7244
 20
40.6400
 30
0.0000
  0
VERTEX
  8
51
 10
7.2136
 20
40.6400
 30
0.0000
 42
0.4142
  0
VERTEX
  8
51
 10
3.8100
 20
44.0436
 30
0.0000
  0
VERTEX
  8
51
 10
3.8100
 20
41.5544
 30
0.0000
 42
-0.4142
  0
SEQEND
  8
0
  0
CIRCLE
  8
51
 10
3.8100
 20
40.6400
 30
0.0000
 40
0.5334
  0
CIRCLE
  8
51
 10
3.8100
 20
40.6400
 30
0.0000
 40
0.9906
  0
CIRCLE
  8
20
 10
3.8100
 20
40.6400
 30
0.0000
 40
1.6000
  0
POLYLINE
  8
51
 66
1
 10
0.0000
 20
0.0000
 30
0.0000
 40
0.0000
 41
0.0000
 70
1
  0
VERTEX
  8
51
 10
49.8856
 20
26.6700
 30
0.0000
  0
VERTEX
  8
51
 10
47.3964
 20
26.6700
 30
0.0000
 42
0.4142
  0
VERTEX
  8
51
 10
50.8000
 20
23.2664
 30
0.0000
  0
VERTEX
  8
51
 10
50.8000
 20
25.7556
 30
0.0000
 42
-0.4142
  0
SEQEND
  8
0
  0
POLYLINE
  8
51
 66
1
 10
0.0000
 20
0.0000
 30
0.0000
 40
0.0000
 41
0.0000
 70
1
  0
VERTEX
  8
51
 10
51.7144
 20
26.6700
 30
0.0000
  0
VERTEX
  8
51
 10
54.2036
 20
26.6700
 30
0.0000
 42
0.4142
  0
VERTEX
  8
51
 10
50.8000
 20
30.0736
 30
0.0000
  0
VERTEX
  8
51
 10
50.8000
 20
27.5844
 30
0.0000
 42
-0.4142
  0
SEQEND
  8
0
  0
CIRCLE
  8
51
 10
50.8000
 20
26.6700
 30
0.0000
 40
0.5334
  0
CIRCLE
  8
51
 10
50.8000
 20
26.6700
 30
0.0000
 40
0.9906
  0
CIRCLE
  8
20
 10
50.8000
 20
26.6700
 30
0.0000
 40
1.6000
  0
POLYLINE
  8
51
 66
1
 10
0.0000
 20
0.0000
 30
0.0000
 40
0.0000
 41
0.0000
 70
1
  0
VERTEX
  8
51
 10
2.8956
 20
3.8100
 30
0.0000
  0
VERTEX
  8
51
 10
0.4064
 20
3.8100
 30
0.0000
 42
0.4142
  0
VERTEX
  8
51
 10
3.8100
 20
0.4064
 30
0.0000
  0
VERTEX
  8
51
 10
3.8100
 20
2.8956
 30
0.0000
 42
-0.4142
  0
SEQEND
  8
0
  0
POLYLINE
  8
51
 66
1
 10
0.0000
 20
0.0000
 30
0.0000
 40
0.0000
 41
0.0000
 70
1
  0
VERTEX
  8
51
 10
4.7244
 20
3.8100
 30
0.0000
  0
VERTEX
  8
51
 10
7.2136
 20
3.8100
 30
0.0000
 42
0.4142
  0
VERTEX
  8
51
 10
3.8100
 20
7.2136
 30
0.0000
  0
VERTEX
  8
51
 10
3.8100
 20
4.7244
 30
0.0000
 42
-0.4142
  0
SEQEND
  8
0
  0
CIRCLE
  8
51
 10
3.8100
 20
3.8100
 30
0.0000
 40
0.5334
  0
CIRCLE
  8
51
 10
3.8100
 20
3.8100
 30
0.0000
 40
0.9906
  0
CIRCLE
  8
20
 10
3.8100
 20
3.8100
 30
0.0000
 40
1.6000
  0
INSERT
  8
17
  2
LONGP100
 10
13.9700
 20
35.5600
 30
0.0000
 41
1.5240
 42
1.5240
 43
1.0000
 50
90.0000
  0
INSERT
  8
17
  2
LONGP100
 10
13.9700
 20
35.5600
 30
0.0000
 41
1.5240
 42
1.5240
 43
1.0000
 50
90.0000
  0
CIRCLE
  8
44
 10
13.9700
 20
35.5600
 30
0.0000
 40
0.5080
  0
INSERT
  8
17
  2
LONGP100
 10
16.5100
 20
35.5600
 30
0.0000
 41
1.5240
 42
1.5240
 43
1.0000
 50
90.0000
  0
INSERT
  8
17
  2
LONGP100
 10
16.5100
 20
35.5600
 30
0.0000
 41
1.5240
 42
1.5240
 43
1.0000
 50
90.0000
  0
CIRCLE
  8
44
 10
16.5100
 20
35.5600
 30
0.0000
 40
0.5080
  0
INSERT
  8
17
  2
LONGP100
 10
19.0500
 20
35.5600
 30
0.0000
 41
1.5240
 42
1.5240
 43
1.0000
 50
90.0000
  0
INSERT
  8
17
  2
LONGP100
 10
19.0500
 20
35.5600
 30
0.0000
 41
1.5240
 42
1.5240
 43
1.0000
 50
90.0000
  0
CIRCLE
  8
44
 10
19.0500
 20
35.5600
 30
0.0000
 40
0.5080
  0
INSERT
  8
51
  2
RECT
 10
13.9700
 20
26.6700
 30
0.0000
 41
0.5080
 42
0.5080
 43
1.0000
 50
90.0000
  0
INSERT
  8
51
  2
RECT
 10
13.9700
 20
24.1300
 30
0.0000
 41
0.5080
 42
0.5080
 43
1.0000
 50
90.0000
  0
INSERT
  8
51
  2
RECT
 10
13.9700
 20
21.5900
 30
0.0000
 41
0.5080
 42
0.5080
 43
1.0000
 50
90.0000
  0
INSERT
  8
17
  2
ROUNDP
 10
13.8430
 20
21.5900
 30
0.0000
 41
1.8796
 42
1.8796
 43
1.0000
 50
180.0000
  0
INSERT
  8
17
  2
ROUNDP
 10
13.8430
 20
21.5900
 30
0.0000
 41
1.8796
 42
1.8796
 43
1.0000
 50
180.0000
  0
CIRCLE
  8
44
 10
13.8430
 20
21.5900
 30
0.0000
 40
0.5080
  0
INSERT
  8
17
  2
ROUNDP
 10
14.0970
 20
24.1300
 30
0.0000
 41
1.8796
 42
1.8796
 43
1.0000
 50
180.0000
  0
INSERT
  8
17
  2
ROUNDP
 10
14.0970
 20
24.1300
 30
0.0000
 41
1.8796
 42
1.8796
 43
1.0000
 50
180.0000
  0
CIRCLE
  8
44
 10
14.0970
 20
24.1300
 30
0.0000
 40
0.5080
  0
INSERT
  8
17
  2
ROUNDP
 10
13.8430
 20
26.6700
 30
0.0000
 41
1.8796
 42
1.8796
 43
1.0000
 50
180.0000
  0
INSERT
  8
17
  2
ROUNDP
 10
13.8430
 20
26.6700
 30
0.0000
 41
1.8796
 42
1.8796
 43
1.0000
 50
180.0000
  0
CIRCLE
  8
44
 10
13.8430
 20
26.6700
 30
0.0000
 40
0.5080
  0
POLYLINE
  8
51
 66
1
 10
0.0000
 20
0.0000
 30
0.0000
 40
0.0000
 41
0.0000
 70
1
  0
VERTEX
  8
51
 10
-0.2100
 20
36.3516
 30
0.0000
  0
VERTEX
  8
51
 10
-3.7100
 20
36.3516
 30
0.0000
 42
1.0000
  0
VERTEX
  8
51
 10
-3.7100
 20
36.1484
 30
0.0000
  0
VERTEX
  8
51
 10
-0.2100
 20
36.1484
 30
0.0000
 42
1.0000
  0
SEQEND
  8
0
  0
POLYLINE
  8
51
 66
1
 10
0.0000
 20
0.0000
 30
0.0000
 40
0.0000
 41
0.0000
 70
1
  0
VERTEX
  8
51
 10
-3.7100
 20
27.1484
 30
0.0000
  0
VERTEX
  8
51
 10
-0.4100
 20
27.1484
 30
0.0000
 42
1.0000
  0
VERTEX
  8
51
 10
-0.4100
 20
27.3516
 30
0.0000
  0
VERTEX
  8
51
 10
-3.7100
 20
27.3516
 30
0.0000
 42
1.0000
  0
SEQEND
  8
0
  0
POLYLINE
  8
51
 66
1
 10
0.0000
 20
0.0000
 30
0.0000
 40
0.0000
 41
0.0000
 70
1
  0
VERTEX
  8
51
 10
-3.6084
 20
27.2500
 30
0.0000
  0
VERTEX
  8
51
 10
-3.6084
 20
36.2500
 30
0.0000
 42
1.0000
  0
VERTEX
  8
51
 10
-3.8116
 20
36.2500
 30
0.0000
  0
VERTEX
  8
51
 10
-3.8116
 20
27.2500
 30
0.0000
 42
1.0000
  0
SEQEND
  8
0
  0
INSERT
  8
17
  2
ROUNDP
 10
4.0900
 20
31.7500
 30
0.0000
 41
1.9500
 42
1.9500
 43
1.0000
 50
270.0000
  0
INSERT
  8
17
  2
ROUNDP
 10
4.0900
 20
31.7500
 30
0.0000
 41
1.9500
 42
1.9500
 43
1.0000
 50
270.0000
  0
CIRCLE
  8
44
 10
4.0900
 20
31.7500
 30
0.0000
 40
0.6500
  0
INSERT
  8
17
  2
ROUNDP
 10
6.8900
 20
26.9500
 30
0.0000
 41
1.9500
 42
1.9500
 43
1.0000
 50
0.0000
  0
INSERT
  8
17
  2
ROUNDP
 10
6.8900
 20
26.9500
 30
0.0000
 41
1.9500
 42
1.9500
 43
1.0000
 50
0.0000
  0
CIRCLE
  8
44
 10
6.8900
 20
26.9500
 30
0.0000
 40
0.6500
  0
INSERT
  8
17
  2
ROUNDP
 10
9.8900
 20
31.7500
 30
0.0000
 41
1.9500
 42
1.9500
 43
1.0000
 50
270.0000
  0
INSERT
  8
17
  2
ROUNDP
 10
9.8900
 20
31.7500
 30
0.0000
 41
1.9500
 42
1.9500
 43
1.0000
 50
270.0000
  0
CIRCLE
  8
44
 10
9.8900
 20
31.7500
 30
0.0000
 40
0.6500
  0
POLYLINE
  8
51
 66
1
 10
0.0000
 20
0.0000
 30
0.0000
 40
0.0000
 41
0.0000
 70
1
  0
VERTEX
  8
51
 10
-0.2100
 20
25.3026
 30
0.0000
  0
VERTEX
  8
51
 10
-3.7100
 20
25.3026
 30
0.0000
 42
1.0000
  0
VERTEX
  8
51
 10
-3.7100
 20
25.0994
 30
0.0000
  0
VERTEX
  8
51
 10
-0.2100
 20
25.0994
 30
0.0000
 42
1.0000
  0
SEQEND
  8
0
  0
POLYLINE
  8
51
 66
1
 10
0.0000
 20
0.0000
 30
0.0000
 40
0.0000
 41
0.0000
 70
1
  0
VERTEX
  8
51
 10
-3.7100
 20
16.0994
 30
0.0000
  0
VERTEX
  8
51
 10
-0.4100
 20
16.0994
 30
0.0000
 42
1.0000
  0
VERTEX
  8
51
 10
-0.4100
 20
16.3026
 30
0.0000
  0
VERTEX
  8
51
 10
-3.7100
 20
16.3026
 30
0.0000
 42
1.0000
  0
SEQEND
  8
0
  0
POLYLINE
  8
51
 66
1
 10
0.0000
 20
0.0000
 30
0.0000
 40
0.0000
 41
0.0000
 70
1
  0
VERTEX
  8
51
 10
-3.6084
 20
16.2010
 30
0.0000
  0
VERTEX
  8
51
 10
-3.6084
 20
25.2010
 30
0.0000
 42
1.0000
  0
VERTEX
  8
51
 10
-3.8116
 20
25.2010
 30
0.0000
  0
VERTEX
  8
51
 10
-3.8116
 20
16.2010
 30
0.0000
 42
1.0000
  0
SEQEND
  8
0
  0
INSERT
  8
17
  2
ROUNDP
 10
4.0900
 20
20.7010
 30
0.0000
 41
1.9500
 42
1.9500
 43
1.0000
 50
270.0000
  0
INSERT
  8
17
  2
ROUNDP
 10
4.0900
 20
20.7010
 30
0.0000
 41
1.9500
 42
1.9500
 43
1.0000
 50
270.0000
  0
CIRCLE
  8
44
 10
4.0900
 20
20.7010
 30
0.0000
 40
0.6500
  0
INSERT
  8
17
  2
ROUNDP
 10
6.8900
 20
15.9010
 30
0.0000
 41
1.9500
 42
1.9500
 43
1.0000
 50
0.0000
  0
INSERT
  8
17
  2
ROUNDP
 10
6.8900
 20
15.9010
 30
0.0000
 41
1.9500
 42
1.9500
 43
1.0000
 50
0.0000
  0
CIRCLE
  8
44
 10
6.8900
 20
15.9010
 30
0.0000
 40
0.6500
  0
INSERT
  8
17
  2
ROUNDP
 10
9.8900
 20
20.7010
 30
0.0000
 41
1.9500
 42
1.9500
 43
1.0000
 50
270.0000
  0
INSERT
  8
17
  2
ROUNDP
 10
9.8900
 20
20.7010
 30
0.0000
 41
1.9500
 42
1.9500
 43
1.0000
 50
270.0000
  0
CIRCLE
  8
44
 10
9.8900
 20
20.7010
 30
0.0000
 40
0.6500
  0
INSERT
  8
17
  2
ROUNDP
 10
25.4000
 20
7.6200
 30
0.0000
 41
1.8796
 42
1.8796
 43
1.0000
 50
0.0000
  0
INSERT
  8
17
  2
ROUNDP
 10
25.4000
 20
7.6200
 30
0.0000
 41
1.8796
 42
1.8796
 43
1.0000
 50
0.0000
  0
CIRCLE
  8
44
 10
25.4000
 20
7.6200
 30
0.0000
 40
0.4500
  0
INSERT
  8
17
  2
ROUNDP
 10
33.0200
 20
7.6200
 30
0.0000
 41
1.8796
 42
1.8796
 43
1.0000
 50
0.0000
  0
INSERT
  8
17
  2
ROUNDP
 10
33.0200
 20
7.6200
 30
0.0000
 41
1.8796
 42
1.8796
 43
1.0000
 50
0.0000
  0
CIRCLE
  8
44
 10
33.0200
 20
7.6200
 30
0.0000
 40
0.4500
  0
INSERT
  8
17
  2
ROUNDP
 10
33.0200
 20
5.0800
 30
0.0000
 41
1.8796
 42
1.8796
 43
1.0000
 50
180.0000
  0
INSERT
  8
17
  2
ROUNDP
 10
33.0200
 20
5.0800
 30
0.0000
 41
1.8796
 42
1.8796
 43
1.0000
 50
180.0000
  0
CIRCLE
  8
44
 10
33.0200
 20
5.0800
 30
0.0000
 40
0.4500
  0
INSERT
  8
17
  2
ROUNDP
 10
25.4000
 20
5.0800
 30
0.0000
 41
1.8796
 42
1.8796
 43
1.0000
 50
180.0000
  0
INSERT
  8
17
  2
ROUNDP
 10
25.4000
 20
5.0800
 30
0.0000
 41
1.8796
 42
1.8796
 43
1.0000
 50
180.0000
  0
CIRCLE
  8
44
 10
25.4000
 20
5.0800
 30
0.0000
 40
0.4500
  0
INSERT
  8
17
  2
ROUNDP
 10
38.1000
 20
2.5400
 30
0.0000
 41
1.8796
 42
1.8796
 43
1.0000
 50
180.0000
  0
INSERT
  8
17
  2
ROUNDP
 10
38.1000
 20
2.5400
 30
0.0000
 41
1.8796
 42
1.8796
 43
1.0000
 50
180.0000
  0
CIRCLE
  8
44
 10
38.1000
 20
2.5400
 30
0.0000
 40
0.4500
  0
INSERT
  8
17
  2
ROUNDP
 10
30.4800
 20
2.5400
 30
0.0000
 41
1.8796
 42
1.8796
 43
1.0000
 50
180.0000
  0
INSERT
  8
17
  2
ROUNDP
 10
30.4800
 20
2.5400
 30
0.0000
 41
1.8796
 42
1.8796
 43
1.0000
 50
180.0000
  0
CIRCLE
  8
44
 10
30.4800
 20
2.5400
 30
0.0000
 40
0.4500
  0
INSERT
  8
17
  2
ROUNDP
 10
22.8600
 20
20.3200
 30
0.0000
 41
1.8796
 42
1.8796
 43
1.0000
 50
0.0000
  0
INSERT
  8
17
  2
ROUNDP
 10
22.8600
 20
20.3200
 30
0.0000
 41
1.8796
 42
1.8796
 43
1.0000
 50
0.0000
  0
CIRCLE
  8
44
 10
22.8600
 20
20.3200
 30
0.0000
 40
0.4500
  0
INSERT
  8
17
  2
ROUNDP
 10
30.4800
 20
20.3200
 30
0.0000
 41
1.8796
 42
1.8796
 43
1.0000
 50
0.0000
  0
INSERT
  8
17
  2
ROUNDP
 10
30.4800
 20
20.3200
 30
0.0000
 41
1.8796
 42
1.8796
 43
1.0000
 50
0.0000
  0
CIRCLE
  8
44
 10
30.4800
 20
20.3200
 30
0.0000
 40
0.4500
  0
INSERT
  8
17
  2
ROUNDP
 10
22.8600
 20
17.7800
 30
0.0000
 41
1.8796
 42
1.8796
 43
1.0000
 50
0.0000
  0
INSERT
  8
17
  2
ROUNDP
 10
22.8600
 20
17.7800
 30
0.0000
 41
1.8796
 42
1.8796
 43
1.0000
 50
0.0000
  0
CIRCLE
  8
44
 10
22.8600
 20
17.7800
 30
0.0000
 40
0.4500
  0
INSERT
  8
17
  2
ROUNDP
 10
30.4800
 20
17.7800
 30
0.0000
 41
1.8796
 42
1.8796
 43
1.0000
 50
0.0000
  0
INSERT
  8
17
  2
ROUNDP
 10
30.4800
 20
17.7800
 30
0.0000
 41
1.8796
 42
1.8796
 43
1.0000
 50
0.0000
  0
CIRCLE
  8
44
 10
30.4800
 20
17.7800
 30
0.0000
 40
0.4500
  0
INSERT
  8
17
  2
ROUNDP
 10
22.8600
 20
38.1000
 30
0.0000
 41
1.8796
 42
1.8796
 43
1.0000
 50
270.0000
  0
INSERT
  8
17
  2
ROUNDP
 10
22.8600
 20
38.1000
 30
0.0000
 41
1.8796
 42
1.8796
 43
1.0000
 50
270.0000
  0
CIRCLE
  8
44
 10
22.8600
 20
38.1000
 30
0.0000
 40
0.4500
  0
INSERT
  8
17
  2
ROUNDP
 10
22.8600
 20
30.4800
 30
0.0000
 41
1.8796
 42
1.8796
 43
1.0000
 50
270.0000
  0
INSERT
  8
17
  2
ROUNDP
 10
22.8600
 20
30.4800
 30
0.0000
 41
1.8796
 42
1.8796
 43
1.0000
 50
270.0000
  0
CIRCLE
  8
44
 10
22.8600
 20
30.4800
 30
0.0000
 40
0.4500
  0
INSERT
  8
17
  2
ROUNDP
 10
33.0200
 20
33.0200
 30
0.0000
 41
1.8796
 42
1.8796
 43
1.0000
 50
180.0000
  0
INSERT
  8
17
  2
ROUNDP
 10
33.0200
 20
33.0200
 30
0.0000
 41
1.8796
 42
1.8796
 43
1.0000
 50
180.0000
  0
CIRCLE
  8
44
 10
33.0200
 20
33.0200
 30
0.0000
 40
0.4500
  0
INSERT
  8
17
  2
ROUNDP
 10
25.4000
 20
33.0200
 30
0.0000
 41
1.8796
 42
1.8796
 43
1.0000
 50
180.0000
  0
INSERT
  8
17
  2
ROUNDP
 10
25.4000
 20
33.0200
 30
0.0000
 41
1.8796
 42
1.8796
 43
1.0000
 50
180.0000
  0
CIRCLE
  8
44
 10
25.4000
 20
33.0200
 30
0.0000
 40
0.4500
  0
INSERT
  8
17
  2
ROUNDP
 10
33.0200
 20
15.2400
 30
0.0000
 41
1.8796
 42
1.8796
 43
1.0000
 50
180.0000
  0
INSERT
  8
17
  2
ROUNDP
 10
33.0200
 20
15.2400
 30
0.0000
 41
1.8796
 42
1.8796
 43
1.0000
 50
180.0000
  0
CIRCLE
  8
44
 10
33.0200
 20
15.2400
 30
0.0000
 40
0.4500
  0
INSERT
  8
17
  2
ROUNDP
 10
25.4000
 20
15.2400
 30
0.0000
 41
1.8796
 42
1.8796
 43
1.0000
 50
180.0000
  0
INSERT
  8
17
  2
ROUNDP
 10
25.4000
 20
15.2400
 30
0.0000
 41
1.8796
 42
1.8796
 43
1.0000
 50
180.0000
  0
CIRCLE
  8
44
 10
25.4000
 20
15.2400
 30
0.0000
 40
0.4500
  0
INSERT
  8
17
  2
ROUNDP
 10
33.0200
 20
12.7000
 30
0.0000
 41
1.8796
 42
1.8796
 43
1.0000
 50
180.0000
  0
INSERT
  8
17
  2
ROUNDP
 10
33.0200
 20
12.7000
 30
0.0000
 41
1.8796
 42
1.8796
 43
1.0000
 50
180.0000
  0
CIRCLE
  8
44
 10
33.0200
 20
12.7000
 30
0.0000
 40
0.4500
  0
INSERT
  8
17
  2
ROUNDP
 10
25.4000
 20
12.7000
 30
0.0000
 41
1.8796
 42
1.8796
 43
1.0000
 50
180.0000
  0
INSERT
  8
17
  2
ROUNDP
 10
25.4000
 20
12.7000
 30
0.0000
 41
1.8796
 42
1.8796
 43
1.0000
 50
180.0000
  0
CIRCLE
  8
44
 10
25.4000
 20
12.7000
 30
0.0000
 40
0.4500
  0
INSERT
  8
17
  2
ROUNDP
 10
33.0200
 20
10.1600
 30
0.0000
 41
1.8796
 42
1.8796
 43
1.0000
 50
180.0000
  0
INSERT
  8
17
  2
ROUNDP
 10
33.0200
 20
10.1600
 30
0.0000
 41
1.8796
 42
1.8796
 43
1.0000
 50
180.0000
  0
CIRCLE
  8
44
 10
33.0200
 20
10.1600
 30
0.0000
 40
0.4500
  0
INSERT
  8
17
  2
ROUNDP
 10
25.4000
 20
10.1600
 30
0.0000
 41
1.8796
 42
1.8796
 43
1.0000
 50
180.0000
  0
INSERT
  8
17
  2
ROUNDP
 10
25.4000
 20
10.1600
 30
0.0000
 41
1.8796
 42
1.8796
 43
1.0000
 50
180.0000
  0
CIRCLE
  8
44
 10
25.4000
 20
10.1600
 30
0.0000
 40
0.4500
  0
INSERT
  8
17
  2
ROUNDP
 10
48.2600
 20
31.7500
 30
0.0000
 41
1.8796
 42
1.8796
 43
1.0000
 50
0.0000
  0
INSERT
  8
17
  2
ROUNDP
 10
48.2600
 20
31.7500
 30
0.0000
 41
1.8796
 42
1.8796
 43
1.0000
 50
0.0000
  0
CIRCLE
  8
44
 10
48.2600
 20
31.7500
 30
0.0000
 40
0.4000
  0
INSERT
  8
17
  2
ROUNDP
 10
50.8000
 20
31.7500
 30
0.0000
 41
1.8796
 42
1.8796
 43
1.0000
 50
0.0000
  0
INSERT
  8
17
  2
ROUNDP
 10
50.8000
 20
31.7500
 30
0.0000
 41
1.8796
 42
1.8796
 43
1.0000
 50
0.0000
  0
CIRCLE
  8
44
 10
50.8000
 20
31.7500
 30
0.0000
 40
0.4000
  0
INSERT
  8
17
  2
ROUNDP
 10
53.3400
 20
31.7500
 30
0.0000
 41
1.8796
 42
1.8796
 43
1.0000
 50
0.0000
  0
INSERT
  8
17
  2
ROUNDP
 10
53.3400
 20
31.7500
 30
0.0000
 41
1.8796
 42
1.8796
 43
1.0000
 50
0.0000
  0
CIRCLE
  8
44
 10
53.3400
 20
31.7500
 30
0.0000
 40
0.4000
  0
INSERT
  8
17
  2
ROUNDP
 10
45.7200
 20
26.6700
 30
0.0000
 41
1.8796
 42
1.8796
 43
1.0000
 50
90.0000
  0
INSERT
  8
17
  2
ROUNDP
 10
45.7200
 20
26.6700
 30
0.0000
 41
1.8796
 42
1.8796
 43
1.0000
 50
90.0000
  0
CIRCLE
  8
44
 10
45.7200
 20
26.6700
 30
0.0000
 40
0.4500
  0
INSERT
  8
17
  2
ROUNDP
 10
45.7200
 20
34.2900
 30
0.0000
 41
1.8796
 42
1.8796
 43
1.0000
 50
90.0000
  0
INSERT
  8
17
  2
ROUNDP
 10
45.7200
 20
34.2900
 30
0.0000
 41
1.8796
 42
1.8796
 43
1.0000
 50
90.0000
  0
CIRCLE
  8
44
 10
45.7200
 20
34.2900
 30
0.0000
 40
0.4500
  0
INSERT
  8
51
  2
RECT
 10
13.9700
 20
15.2400
 30
0.0000
 41
0.5080
 42
0.5080
 43
1.0000
 50
90.0000
  0
INSERT
  8
51
  2
RECT
 10
13.9700
 20
12.7000
 30
0.0000
 41
0.5080
 42
0.5080
 43
1.0000
 50
90.0000
  0
INSERT
  8
51
  2
RECT
 10
13.9700
 20
10.1600
 30
0.0000
 41
0.5080
 42
0.5080
 43
1.0000
 50
90.0000
  0
INSERT
  8
17
  2
ROUNDP
 10
13.8430
 20
10.1600
 30
0.0000
 41
1.8796
 42
1.8796
 43
1.0000
 50
180.0000
  0
INSERT
  8
17
  2
ROUNDP
 10
13.8430
 20
10.1600
 30
0.0000
 41
1.8796
 42
1.8796
 43
1.0000
 50
180.0000
  0
CIRCLE
  8
44
 10
13.8430
 20
10.1600
 30
0.0000
 40
0.5080
  0
INSERT
  8
17
  2
ROUNDP
 10
14.0970
 20
12.7000
 30
0.0000
 41
1.8796
 42
1.8796
 43
1.0000
 50
180.0000
  0
INSERT
  8
17
  2
ROUNDP
 10
14.0970
 20
12.7000
 30
0.0000
 41
1.8796
 42
1.8796
 43
1.0000
 50
180.0000
  0
CIRCLE
  8
44
 10
14.0970
 20
12.7000
 30
0.0000
 40
0.5080
  0
INSERT
  8
17
  2
ROUNDP
 10
13.8430
 20
15.2400
 30
0.0000
 41
1.8796
 42
1.8796
 43
1.0000
 50
180.0000
  0
INSERT
  8
17
  2
ROUNDP
 10
13.8430
 20
15.2400
 30
0.0000
 41
1.8796
 42
1.8796
 43
1.0000
 50
180.0000
  0
CIRCLE
  8
44
 10
13.8430
 20
15.2400
 30
0.0000
 40
0.5080
  0
INSERT
  8
51
  2
RECT
 10
45.7200
 20
41.9100
 30
0.0000
 41
0.5080
 42
0.5080
 43
1.0000
 50
90.0000
  0
INSERT
  8
51
  2
RECT
 10
45.7200
 20
39.3700
 30
0.0000
 41
0.5080
 42
0.5080
 43
1.0000
 50
90.0000
  0
INSERT
  8
51
  2
RECT
 10
45.7200
 20
36.8300
 30
0.0000
 41
0.5080
 42
0.5080
 43
1.0000
 50
90.0000
  0
INSERT
  8
17
  2
ROUNDP
 10
45.5930
 20
36.8300
 30
0.0000
 41
1.8796
 42
1.8796
 43
1.0000
 50
180.0000
  0
INSERT
  8
17
  2
ROUNDP
 10
45.5930
 20
36.8300
 30
0.0000
 41
1.8796
 42
1.8796
 43
1.0000
 50
180.0000
  0
CIRCLE
  8
44
 10
45.5930
 20
36.8300
 30
0.0000
 40
0.5080
  0
INSERT
  8
17
  2
ROUNDP
 10
45.8470
 20
39.3700
 30
0.0000
 41
1.8796
 42
1.8796
 43
1.0000
 50
180.0000
  0
INSERT
  8
17
  2
ROUNDP
 10
45.8470
 20
39.3700
 30
0.0000
 41
1.8796
 42
1.8796
 43
1.0000
 50
180.0000
  0
CIRCLE
  8
44
 10
45.8470
 20
39.3700
 30
0.0000
 40
0.5080
  0
INSERT
  8
17
  2
ROUNDP
 10
45.5930
 20
41.9100
 30
0.0000
 41
1.8796
 42
1.8796
 43
1.0000
 50
180.0000
  0
INSERT
  8
17
  2
ROUNDP
 10
45.5930
 20
41.9100
 30
0.0000
 41
1.8796
 42
1.8796
 43
1.0000
 50
180.0000
  0
CIRCLE
  8
44
 10
45.5930
 20
41.9100
 30
0.0000
 40
0.5080
  0
INSERT
  8
17
  2
ROUNDP
 10
41.9100
 20
41.9100
 30
0.0000
 41
1.8796
 42
1.8796
 43
1.0000
 50
180.0000
  0
INSERT
  8
17
  2
ROUNDP
 10
41.9100
 20
41.9100
 30
0.0000
 41
1.8796
 42
1.8796
 43
1.0000
 50
180.0000
  0
CIRCLE
  8
44
 10
41.9100
 20
41.9100
 30
0.0000
 40
0.4064
  0
INSERT
  8
17
  2
ROUNDP
 10
39.3700
 20
41.9100
 30
0.0000
 41
1.8796
 42
1.8796
 43
1.0000
 50
180.0000
  0
INSERT
  8
17
  2
ROUNDP
 10
39.3700
 20
41.9100
 30
0.0000
 41
1.8796
 42
1.8796
 43
1.0000
 50
180.0000
  0
CIRCLE
  8
44
 10
39.3700
 20
41.9100
 30
0.0000
 40
0.4064
  0
INSERT
  8
17
  2
ROUNDP
 10
36.8300
 20
41.9100
 30
0.0000
 41
1.8796
 42
1.8796
 43
1.0000
 50
180.0000
  0
INSERT
  8
17
  2
ROUNDP
 10
36.8300
 20
41.9100
 30
0.0000
 41
1.8796
 42
1.8796
 43
1.0000
 50
180.0000
  0
CIRCLE
  8
44
 10
36.8300
 20
41.9100
 30
0.0000
 40
0.4064
  0
INSERT
  8
17
  2
ROUNDP
 10
17.7800
 20
16.5100
 30
0.0000
 41
1.8796
 42
1.8796
 43
1.0000
 50
0.0000
  0
INSERT
  8
17
  2
ROUNDP
 10
17.7800
 20
16.5100
 30
0.0000
 41
1.8796
 42
1.8796
 43
1.0000
 50
0.0000
  0
CIRCLE
  8
44
 10
17.7800
 20
16.5100
 30
0.0000
 40
0.4064
  0
INSERT
  8
17
  2
ROUNDP
 10
19.0500
 20
18.4150
 30
0.0000
 41
1.8796
 42
1.8796
 43
1.0000
 50
0.0000
  0
INSERT
  8
17
  2
ROUNDP
 10
19.0500
 20
18.4150
 30
0.0000
 41
1.8796
 42
1.8796
 43
1.0000
 50
0.0000
  0
CIRCLE
  8
44
 10
19.0500
 20
18.4150
 30
0.0000
 40
0.4064
  0
INSERT
  8
17
  2
ROUNDP
 10
20.3200
 20
16.5100
 30
0.0000
 41
1.8796
 42
1.8796
 43
1.0000
 50
0.0000
  0
INSERT
  8
17
  2
ROUNDP
 10
20.3200
 20
16.5100
 30
0.0000
 41
1.8796
 42
1.8796
 43
1.0000
 50
0.0000
  0
CIRCLE
  8
44
 10
20.3200
 20
16.5100
 30
0.0000
 40
0.4064
  0
INSERT
  8
17
  2
ROUNDP
 10
20.3200
 20
12.7000
 30
0.0000
 41
1.8796
 42
1.8796
 43
1.0000
 50
270.0000
  0
INSERT
  8
17
  2
ROUNDP
 10
20.3200
 20
12.7000
 30
0.0000
 41
1.8796
 42
1.8796
 43
1.0000
 50
270.0000
  0
CIRCLE
  8
44
 10
20.3200
 20
12.7000
 30
0.0000
 40
0.4064
  0
INSERT
  8
17
  2
ROUNDP
 10
22.2250
 20
11.4300
 30
0.0000
 41
1.8796
 42
1.8796
 43
1.0000
 50
270.0000
  0
INSERT
  8
17
  2
ROUNDP
 10
22.2250
 20
11.4300
 30
0.0000
 41
1.8796
 42
1.8796
 43
1.0000
 50
270.0000
  0
CIRCLE
  8
44
 10
22.2250
 20
11.4300
 30
0.0000
 40
0.4064
  0
INSERT
  8
17
  2
ROUNDP
 10
20.3200
 20
10.1600
 30
0.0000
 41
1.8796
 42
1.8796
 43
1.0000
 50
270.0000
  0
INSERT
  8
17
  2
ROUNDP
 10
20.3200
 20
10.1600
 30
0.0000
 41
1.8796
 42
1.8796
 43
1.0000
 50
270.0000
  0
CIRCLE
  8
44
 10
20.3200
 20
10.1600
 30
0.0000
 40
0.4064
  0
INSERT
  8
17
  2
ROUNDP
 10
17.7800
 20
30.4800
 30
0.0000
 41
1.8796
 42
1.8796
 43
1.0000
 50
0.0000
  0
INSERT
  8
17
  2
ROUNDP
 10
17.7800
 20
30.4800
 30
0.0000
 41
1.8796
 42
1.8796
 43
1.0000
 50
0.0000
  0
CIRCLE
  8
44
 10
17.7800
 20
30.4800
 30
0.0000
 40
0.4064
  0
INSERT
  8
17
  2
ROUNDP
 10
19.0500
 20
32.3850
 30
0.0000
 41
1.8796
 42
1.8796
 43
1.0000
 50
0.0000
  0
INSERT
  8
17
  2
ROUNDP
 10
19.0500
 20
32.3850
 30
0.0000
 41
1.8796
 42
1.8796
 43
1.0000
 50
0.0000
  0
CIRCLE
  8
44
 10
19.0500
 20
32.3850
 30
0.0000
 40
0.4064
  0
INSERT
  8
17
  2
ROUNDP
 10
20.3200
 20
30.4800
 30
0.0000
 41
1.8796
 42
1.8796
 43
1.0000
 50
0.0000
  0
INSERT
  8
17
  2
ROUNDP
 10
20.3200
 20
30.4800
 30
0.0000
 41
1.8796
 42
1.8796
 43
1.0000
 50
0.0000
  0
CIRCLE
  8
44
 10
20.3200
 20
30.4800
 30
0.0000
 40
0.4064
  0
INSERT
  8
17
  2
LONGP100
 10
43.1800
 20
5.0800
 30
0.0000
 41
1.2192
 42
1.2192
 43
1.0000
 50
180.0000
  0
INSERT
  8
17
  2
LONGP100
 10
43.1800
 20
5.0800
 30
0.0000
 41
1.2192
 42
1.2192
 43
1.0000
 50
180.0000
  0
CIRCLE
  8
44
 10
43.1800
 20
5.0800
 30
0.0000
 40
0.4064
  0
INSERT
  8
17
  2
LONGP100
 10
43.1800
 20
7.6200
 30
0.0000
 41
1.2192
 42
1.2192
 43
1.0000
 50
180.0000
  0
INSERT
  8
17
  2
LONGP100
 10
43.1800
 20
7.6200
 30
0.0000
 41
1.2192
 42
1.2192
 43
1.0000
 50
180.0000
  0
CIRCLE
  8
44
 10
43.1800
 20
7.6200
 30
0.0000
 40
0.4064
  0
INSERT
  8
17
  2
LONGP100
 10
43.1800
 20
10.1600
 30
0.0000
 41
1.2192
 42
1.2192
 43
1.0000
 50
180.0000
  0
INSERT
  8
17
  2
LONGP100
 10
43.1800
 20
10.1600
 30
0.0000
 41
1.2192
 42
1.2192
 43
1.0000
 50
180.0000
  0
CIRCLE
  8
44
 10
43.1800
 20
10.1600
 30
0.0000
 40
0.4064
  0
INSERT
  8
17
  2
LONGP100
 10
43.1800
 20
12.7000
 30
0.0000
 41
1.2192
 42
1.2192
 43
1.0000
 50
180.0000
  0
INSERT
  8
17
  2
LONGP100
 10
43.1800
 20
12.7000
 30
0.0000
 41
1.2192
 42
1.2192
 43
1.0000
 50
180.0000
  0
CIRCLE
  8
44
 10
43.1800
 20
12.7000
 30
0.0000
 40
0.4064
  0
INSERT
  8
17
  2
LONGP100
 10
43.1800
 20
15.2400
 30
0.0000
 41
1.2192
 42
1.2192
 43
1.0000
 50
180.0000
  0
INSERT
  8
17
  2
LONGP100
 10
43.1800
 20
15.2400
 30
0.0000
 41
1.2192
 42
1.2192
 43
1.0000
 50
180.0000
  0
CIRCLE
  8
44
 10
43.1800
 20
15.2400
 30
0.0000
 40
0.4064
  0
INSERT
  8
17
  2
LONGP100
 10
43.1800
 20
17.7800
 30
0.0000
 41
1.2192
 42
1.2192
 43
1.0000
 50
180.0000
  0
INSERT
  8
17
  2
LONGP100
 10
43.1800
 20
17.7800
 30
0.0000
 41
1.2192
 42
1.2192
 43
1.0000
 50
180.0000
  0
CIRCLE
  8
44
 10
43.1800
 20
17.7800
 30
0.0000
 40
0.4064
  0
INSERT
  8
17
  2
LONGP100
 10
43.1800
 20
20.3200
 30
0.0000
 41
1.2192
 42
1.2192
 43
1.0000
 50
180.0000
  0
INSERT
  8
17
  2
LONGP100
 10
43.1800
 20
20.3200
 30
0.0000
 41
1.2192
 42
1.2192
 43
1.0000
 50
180.0000
  0
CIRCLE
  8
44
 10
43.1800
 20
20.3200
 30
0.0000
 40
0.4064
  0
INSERT
  8
17
  2
LONGP100
 10
43.1800
 20
22.8600
 30
0.0000
 41
1.2192
 42
1.2192
 43
1.0000
 50
180.0000
  0
INSERT
  8
17
  2
LONGP100
 10
43.1800
 20
22.8600
 30
0.0000
 41
1.2192
 42
1.2192
 43
1.0000
 50
180.0000
  0
CIRCLE
  8
44
 10
43.1800
 20
22.8600
 30
0.0000
 40
0.4064
  0
INSERT
  8
17
  2
LONGP100
 10
43.1800
 20
25.4000
 30
0.0000
 41
1.2192
 42
1.2192
 43
1.0000
 50
180.0000
  0
INSERT
  8
17
  2
LONGP100
 10
43.1800
 20
25.4000
 30
0.0000
 41
1.2192
 42
1.2192
 43
1.0000
 50
180.0000
  0
CIRCLE
  8
44
 10
43.1800
 20
25.4000
 30
0.0000
 40
0.4064
  0
INSERT
  8
17
  2
LONGP100
 10
43.1800
 20
27.9400
 30
0.0000
 41
1.2192
 42
1.2192
 43
1.0000
 50
180.0000
  0
INSERT
  8
17
  2
LONGP100
 10
43.1800
 20
27.9400
 30
0.0000
 41
1.2192
 42
1.2192
 43
1.0000
 50
180.0000
  0
CIRCLE
  8
44
 10
43.1800
 20
27.9400
 30
0.0000
 40
0.4064
  0
INSERT
  8
17
  2
LONGP100
 10
43.1800
 20
30.4800
 30
0.0000
 41
1.2192
 42
1.2192
 43
1.0000
 50
180.0000
  0
INSERT
  8
17
  2
LONGP100
 10
43.1800
 20
30.4800
 30
0.0000
 41
1.2192
 42
1.2192
 43
1.0000
 50
180.0000
  0
CIRCLE
  8
44
 10
43.1800
 20
30.4800
 30
0.0000
 40
0.4064
  0
INSERT
  8
17
  2
LONGP100
 10
43.1800
 20
33.0200
 30
0.0000
 41
1.2192
 42
1.2192
 43
1.0000
 50
180.0000
  0
INSERT
  8
17
  2
LONGP100
 10
43.1800
 20
33.0200
 30
0.0000
 41
1.2192
 42
1.2192
 43
1.0000
 50
180.0000
  0
CIRCLE
  8
44
 10
43.1800
 20
33.0200
 30
0.0000
 40
0.4064
  0
INSERT
  8
17
  2
LONGP100
 10
43.1800
 20
35.5600
 30
0.0000
 41
1.2192
 42
1.2192
 43
1.0000
 50
180.0000
  0
INSERT
  8
17
  2
LONGP100
 10
43.1800
 20
35.5600
 30
0.0000
 41
1.2192
 42
1.2192
 43
1.0000
 50
180.0000
  0
CIRCLE
  8
44
 10
43.1800
 20
35.5600
 30
0.0000
 40
0.4064
  0
INSERT
  8
17
  2
LONGP100
 10
43.1800
 20
38.1000
 30
0.0000
 41
1.2192
 42
1.2192
 43
1.0000
 50
180.0000
  0
INSERT
  8
17
  2
LONGP100
 10
43.1800
 20
38.1000
 30
0.0000
 41
1.2192
 42
1.2192
 43
1.0000
 50
180.0000
  0
CIRCLE
  8
44
 10
43.1800
 20
38.1000
 30
0.0000
 40
0.4064
  0
INSERT
  8
17
  2
LONGP100
 10
35.5600
 20
38.1000
 30
0.0000
 41
1.2192
 42
1.2192
 43
1.0000
 50
180.0000
  0
INSERT
  8
17
  2
LONGP100
 10
35.5600
 20
38.1000
 30
0.0000
 41
1.2192
 42
1.2192
 43
1.0000
 50
180.0000
  0
CIRCLE
  8
44
 10
35.5600
 20
38.1000
 30
0.0000
 40
0.4064
  0
INSERT
  8
17
  2
LONGP100
 10
35.5600
 20
35.5600
 30
0.0000
 41
1.2192
 42
1.2192
 43
1.0000
 50
180.0000
  0
INSERT
  8
17
  2
LONGP100
 10
35.5600
 20
35.5600
 30
0.0000
 41
1.2192
 42
1.2192
 43
1.0000
 50
180.0000
  0
CIRCLE
  8
44
 10
35.5600
 20
35.5600
 30
0.0000
 40
0.4064
  0
INSERT
  8
17
  2
LONGP100
 10
35.5600
 20
33.0200
 30
0.0000
 41
1.2192
 42
1.2192
 43
1.0000
 50
180.0000
  0
INSERT
  8
17
  2
LONGP100
 10
35.5600
 20
33.0200
 30
0.0000
 41
1.2192
 42
1.2192
 43
1.0000
 50
180.0000
  0
CIRCLE
  8
44
 10
35.5600
 20
33.0200
 30
0.0000
 40
0.4064
  0
INSERT
  8
17
  2
LONGP100
 10
35.5600
 20
30.4800
 30
0.0000
 41
1.2192
 42
1.2192
 43
1.0000
 50
180.0000
  0
INSERT
  8
17
  2
LONGP100
 10
35.5600
 20
30.4800
 30
0.0000
 41
1.2192
 42
1.2192
 43
1.0000
 50
180.0000
  0
CIRCLE
  8
44
 10
35.5600
 20
30.4800
 30
0.0000
 40
0.4064
  0
INSERT
  8
17
  2
LONGP100
 10
35.5600
 20
27.9400
 30
0.0000
 41
1.2192
 42
1.2192
 43
1.0000
 50
180.0000
  0
INSERT
  8
17
  2
LONGP100
 10
35.5600
 20
27.9400
 30
0.0000
 41
1.2192
 42
1.2192
 43
1.0000
 50
180.0000
  0
CIRCLE
  8
44
 10
35.5600
 20
27.9400
 30
0.0000
 40
0.4064
  0
INSERT
  8
17
  2
LONGP100
 10
35.5600
 20
25.4000
 30
0.0000
 41
1.2192
 42
1.2192
 43
1.0000
 50
180.0000
  0
INSERT
  8
17
  2
LONGP100
 10
35.5600
 20
25.4000
 30
0.0000
 41
1.2192
 42
1.2192
 43
1.0000
 50
180.0000
  0
CIRCLE
  8
44
 10
35.5600
 20
25.4000
 30
0.0000
 40
0.4064
  0
INSERT
  8
17
  2
LONGP100
 10
35.5600
 20
22.8600
 30
0.0000
 41
1.2192
 42
1.2192
 43
1.0000
 50
180.0000
  0
INSERT
  8
17
  2
LONGP100
 10
35.5600
 20
22.8600
 30
0.0000
 41
1.2192
 42
1.2192
 43
1.0000
 50
180.0000
  0
CIRCLE
  8
44
 10
35.5600
 20
22.8600
 30
0.0000
 40
0.4064
  0
INSERT
  8
17
  2
LONGP100
 10
35.5600
 20
20.3200
 30
0.0000
 41
1.2192
 42
1.2192
 43
1.0000
 50
180.0000
  0
INSERT
  8
17
  2
LONGP100
 10
35.5600
 20
20.3200
 30
0.0000
 41
1.2192
 42
1.2192
 43
1.0000
 50
180.0000
  0
CIRCLE
  8
44
 10
35.5600
 20
20.3200
 30
0.0000
 40
0.4064
  0
INSERT
  8
17
  2
LONGP100
 10
35.5600
 20
17.7800
 30
0.0000
 41
1.2192
 42
1.2192
 43
1.0000
 50
180.0000
  0
INSERT
  8
17
  2
LONGP100
 10
35.5600
 20
17.7800
 30
0.0000
 41
1.2192
 42
1.2192
 43
1.0000
 50
180.0000
  0
CIRCLE
  8
44
 10
35.5600
 20
17.7800
 30
0.0000
 40
0.4064
  0
INSERT
  8
17
  2
LONGP100
 10
35.5600
 20
15.2400
 30
0.0000
 41
1.2192
 42
1.2192
 43
1.0000
 50
180.0000
  0
INSERT
  8
17
  2
LONGP100
 10
35.5600
 20
15.2400
 30
0.0000
 41
1.2192
 42
1.2192
 43
1.0000
 50
180.0000
  0
CIRCLE
  8
44
 10
35.5600
 20
15.2400
 30
0.0000
 40
0.4064
  0
INSERT
  8
17
  2
LONGP100
 10
35.5600
 20
12.7000
 30
0.0000
 41
1.2192
 42
1.2192
 43
1.0000
 50
180.0000
  0
INSERT
  8
17
  2
LONGP100
 10
35.5600
 20
12.7000
 30
0.0000
 41
1.2192
 42
1.2192
 43
1.0000
 50
180.0000
  0
CIRCLE
  8
44
 10
35.5600
 20
12.7000
 30
0.0000
 40
0.4064
  0
INSERT
  8
17
  2
LONGP100
 10
35.5600
 20
10.1600
 30
0.0000
 41
1.2192
 42
1.2192
 43
1.0000
 50
180.0000
  0
INSERT
  8
17
  2
LONGP100
 10
35.5600
 20
10.1600
 30
0.0000
 41
1.2192
 42
1.2192
 43
1.0000
 50
180.0000
  0
CIRCLE
  8
44
 10
35.5600
 20
10.1600
 30
0.0000
 40
0.4064
  0
INSERT
  8
17
  2
LONGP100
 10
35.5600
 20
7.6200
 30
0.0000
 41
1.2192
 42
1.2192
 43
1.0000
 50
180.0000
  0
INSERT
  8
17
  2
LONGP100
 10
35.5600
 20
7.6200
 30
0.0000
 41
1.2192
 42
1.2192
 43
1.0000
 50
180.0000
  0
CIRCLE
  8
44
 10
35.5600
 20
7.6200
 30
0.0000
 40
0.4064
  0
INSERT
  8
17
  2
LONGP100
 10
35.5600
 20
5.0800
 30
0.0000
 41
1.2192
 42
1.2192
 43
1.0000
 50
180.0000
  0
INSERT
  8
17
  2
LONGP100
 10
35.5600
 20
5.0800
 30
0.0000
 41
1.2192
 42
1.2192
 43
1.0000
 50
180.0000
  0
CIRCLE
  8
44
 10
35.5600
 20
5.0800
 30
0.0000
 40
0.4064
  0
INSERT
  8
17
  2
ROUNDP
 10
27.9400
 20
25.4000
 30
0.0000
 41
1.8796
 42
1.8796
 43
1.0000
 50
180.0000
  0
INSERT
  8
17
  2
ROUNDP
 10
27.9400
 20
25.4000
 30
0.0000
 41
1.8796
 42
1.8796
 43
1.0000
 50
180.0000
  0
CIRCLE
  8
44
 10
27.9400
 20
25.4000
 30
0.0000
 40
0.4500
  0
INSERT
  8
17
  2
ROUNDP
 10
20.3200
 20
25.4000
 30
0.0000
 41
1.8796
 42
1.8796
 43
1.0000
 50
180.0000
  0
INSERT
  8
17
  2
ROUNDP
 10
20.3200
 20
25.4000
 30
0.0000
 41
1.8796
 42
1.8796
 43
1.0000
 50
180.0000
  0
CIRCLE
  8
44
 10
20.3200
 20
25.4000
 30
0.0000
 40
0.4500
  0
INSERT
  8
17
  2
ROUNDP
 10
20.3200
 20
22.8600
 30
0.0000
 41
1.8796
 42
1.8796
 43
1.0000
 50
0.0000
  0
INSERT
  8
17
  2
ROUNDP
 10
20.3200
 20
22.8600
 30
0.0000
 41
1.8796
 42
1.8796
 43
1.0000
 50
0.0000
  0
CIRCLE
  8
44
 10
20.3200
 20
22.8600
 30
0.0000
 40
0.4500
  0
INSERT
  8
17
  2
ROUNDP
 10
27.9400
 20
22.8600
 30
0.0000
 41
1.8796
 42
1.8796
 43
1.0000
 50
0.0000
  0
INSERT
  8
17
  2
ROUNDP
 10
27.9400
 20
22.8600
 30
0.0000
 41
1.8796
 42
1.8796
 43
1.0000
 50
0.0000
  0
CIRCLE
  8
44
 10
27.9400
 20
22.8600
 30
0.0000
 40
0.4500
  0
INSERT
  8
17
  2
ROUNDP
 10
30.4800
 20
27.9400
 30
0.0000
 41
1.8796
 42
1.8796
 43
1.0000
 50
180.0000
  0
INSERT
  8
17
  2
ROUNDP
 10
30.4800
 20
27.9400
 30
0.0000
 41
1.8796
 42
1.8796
 43
1.0000
 50
180.0000
  0
CIRCLE
  8
44
 10
30.4800
 20
27.9400
 30
0.0000
 40
0.4500
  0
INSERT
  8
17
  2
ROUNDP
 10
22.8600
 20
27.9400
 30
0.0000
 41
1.8796
 42
1.8796
 43
1.0000
 50
180.0000
  0
INSERT
  8
17
  2
ROUNDP
 10
22.8600
 20
27.9400
 30
0.0000
 41
1.8796
 42
1.8796
 43
1.0000
 50
180.0000
  0
CIRCLE
  8
44
 10
22.8600
 20
27.9400
 30
0.0000
 40
0.4500
  0
INSERT
  8
17
  2
ROUNDP
 10
25.4000
 20
30.4800
 30
0.0000
 41
1.8796
 42
1.8796
 43
1.0000
 50
0.0000
  0
INSERT
  8
17
  2
ROUNDP
 10
25.4000
 20
30.4800
 30
0.0000
 41
1.8796
 42
1.8796
 43
1.0000
 50
0.0000
  0
CIRCLE
  8
44
 10
25.4000
 20
30.4800
 30
0.0000
 40
0.4500
  0
INSERT
  8
17
  2
ROUNDP
 10
33.0200
 20
30.4800
 30
0.0000
 41
1.8796
 42
1.8796
 43
1.0000
 50
0.0000
  0
INSERT
  8
17
  2
ROUNDP
 10
33.0200
 20
30.4800
 30
0.0000
 41
1.8796
 42
1.8796
 43
1.0000
 50
0.0000
  0
CIRCLE
  8
44
 10
33.0200
 20
30.4800
 30
0.0000
 40
0.4500
  0
INSERT
  8
17
  2
ROUNDP
 10
33.0200
 20
38.1000
 30
0.0000
 41
1.8796
 42
1.8796
 43
1.0000
 50
180.0000
  0
INSERT
  8
17
  2
ROUNDP
 10
33.0200
 20
38.1000
 30
0.0000
 41
1.8796
 42
1.8796
 43
1.0000
 50
180.0000
  0
CIRCLE
  8
44
 10
33.0200
 20
38.1000
 30
0.0000
 40
0.4500
  0
INSERT
  8
17
  2
ROUNDP
 10
25.4000
 20
38.1000
 30
0.0000
 41
1.8796
 42
1.8796
 43
1.0000
 50
180.0000
  0
INSERT
  8
17
  2
ROUNDP
 10
25.4000
 20
38.1000
 30
0.0000
 41
1.8796
 42
1.8796
 43
1.0000
 50
180.0000
  0
CIRCLE
  8
44
 10
25.4000
 20
38.1000
 30
0.0000
 40
0.4500
  0
INSERT
  8
17
  2
ROUNDP
 10
25.4000
 20
35.5600
 30
0.0000
 41
1.8796
 42
1.8796
 43
1.0000
 50
0.0000
  0
INSERT
  8
17
  2
ROUNDP
 10
25.4000
 20
35.5600
 30
0.0000
 41
1.8796
 42
1.8796
 43
1.0000
 50
0.0000
  0
CIRCLE
  8
44
 10
25.4000
 20
35.5600
 30
0.0000
 40
0.4500
  0
INSERT
  8
17
  2
ROUNDP
 10
33.0200
 20
35.5600
 30
0.0000
 41
1.8796
 42
1.8796
 43
1.0000
 50
0.0000
  0
INSERT
  8
17
  2
ROUNDP
 10
33.0200
 20
35.5600
 30
0.0000
 41
1.8796
 42
1.8796
 43
1.0000
 50
0.0000
  0
CIRCLE
  8
44
 10
33.0200
 20
35.5600
 30
0.0000
 40
0.4500
  0
POLYLINE
  8
51
 66
1
 10
0.0000
 20
0.0000
 30
0.0000
 40
0.0000
 41
0.0000
 70
1
  0
VERTEX
  8
51
 10
10.0284
 20
13.8300
 30
0.0000
  0
VERTEX
  8
51
 10
10.0284
 20
9.0300
 30
0.0000
 42
1.0000
  0
VERTEX
  8
51
 10
10.2316
 20
9.0300
 30
0.0000
  0
VERTEX
  8
51
 10
10.2316
 20
13.8300
 30
0.0000
 42
1.0000
  0
SEQEND
  8
0
  0
POLYLINE
  8
51
 66
1
 10
0.0000
 20
0.0000
 30
0.0000
 40
0.0000
 41
0.0000
 70
1
  0
VERTEX
  8
51
 10
10.1300
 20
9.1316
 30
0.0000
  0
VERTEX
  8
51
 10
0.3300
 20
9.1316
 30
0.0000
 42
1.0000
  0
VERTEX
  8
51
 10
0.3300
 20
8.9284
 30
0.0000
  0
VERTEX
  8
51
 10
10.1300
 20
8.9284
 30
0.0000
 42
1.0000
  0
SEQEND
  8
0
  0
POLYLINE
  8
51
 66
1
 10
0.0000
 20
0.0000
 30
0.0000
 40
0.0000
 41
0.0000
 70
1
  0
VERTEX
  8
51
 10
0.3300
 20
13.7284
 30
0.0000
  0
VERTEX
  8
51
 10
10.1300
 20
13.7284
 30
0.0000
 42
1.0000
  0
VERTEX
  8
51
 10
10.1300
 20
13.9316
 30
0.0000
  0
VERTEX
  8
51
 10
0.3300
 20
13.9316
 30
0.0000
 42
1.0000
  0
SEQEND
  8
0
  0
LINE
  8
20
 10
1.6300
 20
8.8300
 30
0.0000
 11
1.6300
 21
10.0300
 31
0.0000
  0
LINE
  8
20
 10
1.6300
 20
10.0300
 30
0.0000
 11
3.3300
 21
10.0300
 31
0.0000
  0
LINE
  8
20
 10
3.3300
 20
10.0300
 30
0.0000
 11
3.3300
 21
8.8300
 31
0.0000
  0
LINE
  8
20
 10
3.3300
 20
8.8300
 30
0.0000
 11
1.6300
 21
8.8300
 31
0.0000
  0
LINE
  8
20
 10
1.6300
 20
12.8300
 30
0.0000
 11
1.6300
 21
14.0300
 31
0.0000
  0
LINE
  8
20
 10
1.6300
 20
14.0300
 30
0.0000
 11
3.3300
 21
14.0300
 31
0.0000
  0
LINE
  8
20
 10
3.3300
 20
14.0300
 30
0.0000
 11
3.3300
 21
12.8300
 31
0.0000
  0
LINE
  8
20
 10
3.3300
 20
12.8300
 30
0.0000
 11
1.6300
 21
12.8300
 31
0.0000
  0
LINE
  8
46
 10
6.4800
 20
9.0300
 30
0.0000
 11
6.4800
 21
10.0300
 31
0.0000
  0
LINE
  8
46
 10
6.4800
 20
10.0300
 30
0.0000
 11
7.9800
 21
10.0300
 31
0.0000
  0
LINE
  8
46
 10
7.9800
 20
10.0300
 30
0.0000
 11
7.9800
 21
9.0300
 31
0.0000
  0
LINE
  8
46
 10
7.9800
 20
9.0300
 30
0.0000
 11
6.4800
 21
9.0300
 31
0.0000
  0
LINE
  8
46
 10
6.4800
 20
12.8300
 30
0.0000
 11
6.4800
 21
13.8300
 31
0.0000
  0
LINE
  8
46
 10
6.4800
 20
13.8300
 30
0.0000
 11
7.9800
 21
13.8300
 31
0.0000
  0
LINE
  8
46
 10
7.9800
 20
13.8300
 30
0.0000
 11
7.9800
 21
12.8300
 31
0.0000
  0
LINE
  8
46
 10
7.9800
 20
12.8300
 30
0.0000
 11
6.4800
 21
12.8300
 31
0.0000
  0
LINE
  8
46
 10
10.7300
 20
10.6800
 30
0.0000
 11
10.7300
 21
12.1800
 31
0.0000
  0
LINE
  8
46
 10
10.7300
 20
12.1800
 30
0.0000
 11
9.7300
 21
12.1800
 31
0.0000
  0
LINE
  8
46
 10
9.7300
 20
12.1800
 30
0.0000
 11
9.7300
 21
10.6800
 31
0.0000
  0
LINE
  8
46
 10
9.7300
 20
10.6800
 30
0.0000
 11
10.7300
 21
10.6800
 31
0.0000
  0
CIRCLE
  8
20
 10
2.4800
 20
9.4300
 30
0.0000
 40
0.6000
  0
CIRCLE
  8
20
 10
2.4800
 20
13.4300
 30
0.0000
 40
0.6000
  0
INSERT
  8
17
  2
LONGP100
 10
7.2300
 20
9.5300
 30
0.0000
 41
1.6500
 42
1.6500
 43
1.0000
 50
180.0000
  0
INSERT
  8
17
  2
LONGP100
 10
7.2300
 20
9.5300
 30
0.0000
 41
1.6500
 42
1.6500
 43
1.0000
 50
180.0000
  0
CIRCLE
  8
44
 10
7.2300
 20
9.5300
 30
0.0000
 40
0.5500
  0
INSERT
  8
17
  2
LONGP100
 10
10.2300
 20
11.4300
 30
0.0000
 41
1.6500
 42
1.6500
 43
1.0000
 50
90.0000
  0
INSERT
  8
17
  2
LONGP100
 10
10.2300
 20
11.4300
 30
0.0000
 41
1.6500
 42
1.6500
 43
1.0000
 50
90.0000
  0
CIRCLE
  8
44
 10
10.2300
 20
11.4300
 30
0.0000
 40
0.5500
  0
INSERT
  8
17
  2
LONGP100
 10
7.2300
 20
13.3300
 30
0.0000
 41
1.6500
 42
1.6500
 43
1.0000
 50
180.0000
  0
INSERT
  8
17
  2
LONGP100
 10
7.2300
 20
13.3300
 30
0.0000
 41
1.6500
 42
1.6500
 43
1.0000
 50
180.0000
  0
CIRCLE
  8
44
 10
7.2300
 20
13.3300
 30
0.0000
 40
0.5500
  0
INSERT
  8
51
  2
RECT
 10
52.9590
 20
36.8300
 30
0.0000
 41
0.5080
 42
0.5080
 43
1.0000
 50
90.0000
  0
INSERT
  8
51
  2
RECT
 10
50.4190
 20
36.8300
 30
0.0000
 41
0.5080
 42
0.5080
 43
1.0000
 50
90.0000
  0
INSERT
  8
51
  2
RECT
 10
50.4190
 20
39.3700
 30
0.0000
 41
0.5080
 42
0.5080
 43
1.0000
 50
90.0000
  0
INSERT
  8
51
  2
RECT
 10
52.9590
 20
39.3700
 30
0.0000
 41
0.5080
 42
0.5080
 43
1.0000
 50
90.0000
  0
INSERT
  8
51
  2
RECT
 10
50.4190
 20
41.9100
 30
0.0000
 41
0.5080
 42
0.5080
 43
1.0000
 50
90.0000
  0
INSERT
  8
51
  2
RECT
 10
52.9590
 20
41.9100
 30
0.0000
 41
0.5080
 42
0.5080
 43
1.0000
 50
90.0000
  0
INSERT
  8
17
  2
OCTAGONP
 10
52.9590
 20
36.8300
 30
0.0000
 41
1.8796
 42
1.8796
 43
1.0000
 50
90.0000
  0
INSERT
  8
17
  2
OCTAGONP
 10
52.9590
 20
36.8300
 30
0.0000
 41
1.8796
 42
1.8796
 43
1.0000
 50
90.0000
  0
CIRCLE
  8
44
 10
52.9590
 20
36.8300
 30
0.0000
 40
0.5080
  0
INSERT
  8
17
  2
OCTAGONP
 10
50.4190
 20
36.8300
 30
0.0000
 41
1.8796
 42
1.8796
 43
1.0000
 50
90.0000
  0
INSERT
  8
17
  2
OCTAGONP
 10
50.4190
 20
36.8300
 30
0.0000
 41
1.8796
 42
1.8796
 43
1.0000
 50
90.0000
  0
CIRCLE
  8
44
 10
50.4190
 20
36.8300
 30
0.0000
 40
0.5080
  0
INSERT
  8
17
  2
OCTAGONP
 10
52.9590
 20
39.3700
 30
0.0000
 41
1.8796
 42
1.8796
 43
1.0000
 50
90.0000
  0
INSERT
  8
17
  2
OCTAGONP
 10
52.9590
 20
39.3700
 30
0.0000
 41
1.8796
 42
1.8796
 43
1.0000
 50
90.0000
  0
CIRCLE
  8
44
 10
52.9590
 20
39.3700
 30
0.0000
 40
0.5080
  0
INSERT
  8
17
  2
OCTAGONP
 10
50.4190
 20
39.3700
 30
0.0000
 41
1.8796
 42
1.8796
 43
1.0000
 50
90.0000
  0
INSERT
  8
17
  2
OCTAGONP
 10
50.4190
 20
39.3700
 30
0.0000
 41
1.8796
 42
1.8796
 43
1.0000
 50
90.0000
  0
CIRCLE
  8
44
 10
50.4190
 20
39.3700
 30
0.0000
 40
0.5080
  0
INSERT
  8
17
  2
OCTAGONP
 10
52.9590
 20
41.9100
 30
0.0000
 41
1.8796
 42
1.8796
 43
1.0000
 50
90.0000
  0
INSERT
  8
17
  2
OCTAGONP
 10
52.9590
 20
41.9100
 30
0.0000
 41
1.8796
 42
1.8796
 43
1.0000
 50
90.0000
  0
CIRCLE
  8
44
 10
52.9590
 20
41.9100
 30
0.0000
 40
0.5080
  0
INSERT
  8
17
  2
OCTAGONP
 10
50.4190
 20
41.9100
 30
0.0000
 41
1.8796
 42
1.8796
 43
1.0000
 50
90.0000
  0
INSERT
  8
17
  2
OCTAGONP
 10
50.4190
 20
41.9100
 30
0.0000
 41
1.8796
 42
1.8796
 43
1.0000
 50
90.0000
  0
CIRCLE
  8
44
 10
50.4190
 20
41.9100
 30
0.0000
 40
0.5080
  0
ENDSEC
  0
EOF
